<?xml version="1.0" encoding="utf-8"?>
<!-- Generator: Adobe Illustrator 18.1.1, SVG Export Plug-In . SVG Version: 6.00 Build 0)  -->
<!DOCTYPE svg PUBLIC "-//W3C//DTD SVG 1.1//EN" "http://www.w3.org/Graphics/SVG/1.1/DTD/svg11.dtd">
<svg version="1.1" id="Layer_1" xmlns="http://www.w3.org/2000/svg" xmlns:xlink="http://www.w3.org/1999/xlink" x="0px" y="0px"
	 viewBox="0 0 84.9 103.1" enable-background="new 0 0 84.9 103.1" xml:space="preserve">
<rect x="2" y="1.5" fill="none" stroke="#3F566B" stroke-miterlimit="10" width="81.1" height="99.7"/>
<circle fill="none" stroke="#3F566B" stroke-miterlimit="10" cx="14" cy="16.7" r="6.4"/>
<line fill="none" stroke="#3F566B" stroke-miterlimit="10" x1="27" y1="39.5" x2="67" y2="39.5"/>
<line fill="none" stroke="#3F566B" stroke-miterlimit="10" x1="27" y1="41.5" x2="67" y2="41.5"/>
<line fill="none" stroke="#3F566B" stroke-miterlimit="10" x1="27" y1="43.5" x2="67" y2="43.5"/>
<line fill="none" stroke="#3F566B" stroke-miterlimit="10" x1="27" y1="45.5" x2="67" y2="45.5"/>
<line fill="none" stroke="#3F566B" stroke-miterlimit="10" x1="27" y1="47.5" x2="67" y2="47.5"/>
<line fill="none" stroke="#3F566B" stroke-miterlimit="10" x1="27" y1="49.5" x2="67" y2="49.5"/>
<line fill="none" stroke="#3F566B" stroke-miterlimit="10" x1="27" y1="51.5" x2="67" y2="51.5"/>
<line fill="none" stroke="#3F566B" stroke-miterlimit="10" x1="27" y1="53.5" x2="56" y2="53.5"/>
<line fill="none" stroke="#3F566B" stroke-miterlimit="10" x1="27" y1="55.5" x2="51" y2="55.5"/>
<line fill="none" stroke="#3F566B" stroke-miterlimit="10" x1="27" y1="60.5" x2="67" y2="60.5"/>
<line fill="none" stroke="#3F566B" stroke-miterlimit="10" x1="27" y1="62.5" x2="67" y2="62.5"/>
<line fill="none" stroke="#3F566B" stroke-miterlimit="10" x1="27" y1="64.5" x2="67" y2="64.5"/>
<line fill="none" stroke="#3F566B" stroke-miterlimit="10" x1="27" y1="66.5" x2="67" y2="66.5"/>
<line fill="none" stroke="#3F566B" stroke-miterlimit="10" x1="27" y1="68.5" x2="67" y2="68.5"/>
<line fill="none" stroke="#3F566B" stroke-miterlimit="10" x1="27" y1="70.5" x2="67" y2="70.5"/>
<line fill="none" stroke="#3F566B" stroke-miterlimit="10" x1="27" y1="72.5" x2="67" y2="72.5"/>
<line fill="none" stroke="#3F566B" stroke-miterlimit="10" x1="27" y1="74.5" x2="56" y2="74.5"/>
<line fill="none" stroke="#3F566B" stroke-miterlimit="10" x1="27" y1="76.5" x2="51" y2="76.5"/>
<line fill="none" stroke="#3F566B" stroke-miterlimit="10" x1="27" y1="81.5" x2="67" y2="81.5"/>
<line fill="none" stroke="#3F566B" stroke-miterlimit="10" x1="27" y1="83.5" x2="67" y2="83.5"/>
<line fill="none" stroke="#3F566B" stroke-miterlimit="10" x1="27" y1="85.5" x2="67" y2="85.5"/>
<line fill="none" stroke="#3F566B" stroke-miterlimit="10" x1="27" y1="87.5" x2="67" y2="87.5"/>
<line fill="none" stroke="#3F566B" stroke-miterlimit="10" x1="27" y1="89.5" x2="56" y2="89.5"/>
<line fill="none" stroke="#3F566B" stroke-miterlimit="10" x1="27" y1="91.5" x2="51" y2="91.5"/>
<line fill="none" stroke="#3F566B" stroke-miterlimit="10" x1="8" y1="29.5" x2="21" y2="29.5"/>
<line fill="none" stroke="#3F566B" stroke-miterlimit="10" x1="8" y1="31.5" x2="21" y2="31.5"/>
<line fill="none" stroke="#3F566B" stroke-miterlimit="10" x1="8" y1="33.5" x2="21" y2="33.5"/>
<line fill="none" stroke="#3F566B" stroke-miterlimit="10" x1="8" y1="35.5" x2="21" y2="35.5"/>
<line fill="none" stroke="#3F566B" stroke-width="2" stroke-miterlimit="10" x1="27" y1="12" x2="76" y2="12"/>
<line fill="none" stroke="#3F566B" stroke-width="2" stroke-miterlimit="10" x1="27" y1="16" x2="76" y2="16"/>
<line fill="none" stroke="#3F566B" stroke-width="2" stroke-miterlimit="10" x1="27" y1="28" x2="65" y2="28"/>
<line fill="none" stroke="#3F566B" stroke-width="2" stroke-miterlimit="10" x1="27" y1="24" x2="76" y2="24"/>
<line fill="none" stroke="#3F566B" stroke-width="2" stroke-miterlimit="10" x1="27" y1="20" x2="76" y2="20"/>
</svg>
