<?xml version="1.0" encoding="utf-8"?>
<!-- Generator: Adobe Illustrator 18.1.1, SVG Export Plug-In . SVG Version: 6.00 Build 0)  -->
<!DOCTYPE svg PUBLIC "-//W3C//DTD SVG 1.1//EN" "http://www.w3.org/Graphics/SVG/1.1/DTD/svg11.dtd">
<svg version="1.1" id="Layer_1" xmlns="http://www.w3.org/2000/svg" xmlns:xlink="http://www.w3.org/1999/xlink" x="0px" y="0px"
	 viewBox="0 0 1280 800" enable-background="new 0 0 1280 800" xml:space="preserve">
<line fill="none" stroke="#DDDBDB" stroke-miterlimit="10" x1="254" y1="240.5" x2="1239" y2="240.5"/>
<text transform="matrix(1 0 0 1 218.1357 359.8436)"><tspan x="0" y="0" fill="#3F566B" font-family="'PlayfairDisplay-Regular'" font-size="19">Clarice Technologies </tspan><tspan x="0" y="22.8" fill="#3F566B" font-family="'PlayfairDisplay-Regular'" font-size="19">(Acquired by Globant)</tspan></text>
<text transform="matrix(1 0 0 1 1255.1755 245.8239)" fill="#DDDBDB" font-family="'BrandonGrotesque-Black'" font-size="15.5889">2004</text>
<text transform="matrix(1 0 0 1 386.6426 423.2224)" fill="#3F566B" font-family="'PlayfairDisplay-Regular'" font-size="19">Helpshift Inc.</text>
<text transform="matrix(1 0 0 1 475.603 359.8434)" fill="#3F566B" font-family="'PlayfairDisplay-Regular'" font-size="19">Persistent  Systems.</text>
<text transform="matrix(1 0 0 1 637.5629 423.2225)" fill="#3F566B" font-family="'PlayfairDisplay-Regular'" font-size="19">Freelancer</text>
<text transform="matrix(1 0 0 1 725.6043 359.8434)" fill="#3F566B" font-family="'PlayfairDisplay-Regular'" font-size="19">Yahoo! India Prv. Ltd.</text>
<text transform="matrix(1 0 0 1 892.1025 423.2225)" fill="#3F566B" font-family="'PlayfairDisplay-Regular'" font-size="19">Aftek Ltd.</text>
<text transform="matrix(1 0 0 1 978.5818 359.8434)" fill="#3F566B" font-family="'PlayfairDisplay-Regular'" font-size="19">Maximize Learning</text>
<text transform="matrix(1 0 0 1 1126.1396 423.2225)" fill="#3F566B" font-family="'PlayfairDisplay-Regular'" font-size="19">Aims  Digital</text>
<circle fill="#FFFFFF" stroke="#7FC580" stroke-miterlimit="10" cx="683.4" cy="239.6" r="12.5"/>
<circle fill="#DDDBDB" cx="1237.7" cy="240.4" r="3.3"/>
<g>
	<g>
		<line fill="none" stroke="#DDDBDB" stroke-miterlimit="10" x1="436.5" y1="260" x2="436.5" y2="260"/>
		<line fill="none" stroke="#DDDBDB" stroke-miterlimit="10" stroke-dasharray="1,1" x1="436.5" y1="261" x2="436.5" y2="396"/>
		<line fill="none" stroke="#DDDBDB" stroke-miterlimit="10" x1="436.5" y1="397" x2="436.5" y2="397"/>
	</g>
</g>
<g>
	<g>
		<line fill="none" stroke="#DDDBDB" stroke-miterlimit="10" x1="313.5" y1="260" x2="313.5" y2="260"/>
		<line fill="none" stroke="#DDDBDB" stroke-miterlimit="10" stroke-dasharray="1,1" x1="313.5" y1="261" x2="313.5" y2="330"/>
		<line fill="none" stroke="#DDDBDB" stroke-miterlimit="10" x1="313.5" y1="331" x2="313.5" y2="331"/>
	</g>
</g>
<g>
	<g>
		<line fill="none" stroke="#DDDBDB" stroke-miterlimit="10" x1="683.5" y1="252" x2="683.5" y2="253"/>
		<line fill="none" stroke="#DDDBDB" stroke-miterlimit="10" stroke-dasharray="1,1" x1="683.5" y1="254" x2="683.5" y2="392"/>
		<line fill="none" stroke="#DDDBDB" stroke-miterlimit="10" x1="683.5" y1="393" x2="683.5" y2="393"/>
	</g>
</g>
<g>
	<g>
		<line fill="none" stroke="#DDDBDB" stroke-miterlimit="10" x1="560.5" y1="252" x2="560.5" y2="253"/>
		<line fill="none" stroke="#DDDBDB" stroke-miterlimit="10" stroke-dasharray="1,1" x1="560.5" y1="254" x2="560.5" y2="332"/>
		<line fill="none" stroke="#DDDBDB" stroke-miterlimit="10" x1="560.5" y1="333" x2="560.5" y2="333"/>
	</g>
</g>
<g>
	<g>
		<line fill="none" stroke="#DDDBDB" stroke-miterlimit="10" x1="809.5" y1="252" x2="809.5" y2="253"/>
		<line fill="none" stroke="#DDDBDB" stroke-miterlimit="10" stroke-dasharray="1,1" x1="809.5" y1="254" x2="809.5" y2="327"/>
		<line fill="none" stroke="#DDDBDB" stroke-miterlimit="10" x1="809.5" y1="328" x2="809.5" y2="328"/>
	</g>
</g>
<g>
	<g>
		<line fill="none" stroke="#DDDBDB" stroke-miterlimit="10" x1="1054.5" y1="252" x2="1054.5" y2="253"/>
		<line fill="none" stroke="#DDDBDB" stroke-miterlimit="10" stroke-dasharray="1,1" x1="1054.5" y1="254" x2="1054.5" y2="332"/>
		<line fill="none" stroke="#DDDBDB" stroke-miterlimit="10" x1="1054.5" y1="333" x2="1054.5" y2="333"/>
	</g>
</g>
<g>
	<g>
		<line fill="none" stroke="#DDDBDB" stroke-miterlimit="10" x1="929.5" y1="252" x2="929.5" y2="253"/>
		<line fill="none" stroke="#DDDBDB" stroke-miterlimit="10" stroke-dasharray="1,1" x1="929.5" y1="254" x2="929.5" y2="391"/>
		<line fill="none" stroke="#DDDBDB" stroke-miterlimit="10" x1="929.5" y1="391" x2="929.5" y2="392"/>
	</g>
</g>
<g>
	<g>
		<line fill="none" stroke="#DDDBDB" stroke-miterlimit="10" x1="1175.5" y1="252" x2="1175.5" y2="253"/>
		<line fill="none" stroke="#DDDBDB" stroke-miterlimit="10" stroke-dasharray="1,1" x1="1175.5" y1="254" x2="1175.5" y2="396"/>
		<line fill="none" stroke="#DDDBDB" stroke-miterlimit="10" x1="1175.5" y1="397" x2="1175.5" y2="397"/>
	</g>
</g>
<circle fill="#FFFFFF" stroke="#7FC580" stroke-miterlimit="10" cx="313.7" cy="239.6" r="60.8"/>
<circle fill="#FFFFFF" stroke="#7FC580" stroke-miterlimit="10" cx="437.5" cy="239.6" r="20.3"/>
<circle fill="#FFFFFF" stroke="#7FC580" stroke-miterlimit="10" cx="560.4" cy="239.6" r="71.7"/>
<circle fill="#FFFFFF" stroke="#7FC580" stroke-miterlimit="10" cx="806.3" cy="239.6" r="48.3"/>
<circle fill="#FFFFFF" stroke="#7FC580" stroke-miterlimit="10" cx="929.2" cy="239.6" r="35.4"/>
<circle fill="#FFFFFF" stroke="#7FC580" stroke-miterlimit="10" cx="1052.2" cy="239.6" r="32.3"/>
<circle fill="#FFFFFF" stroke="#7FC580" stroke-miterlimit="10" cx="1175.1" cy="239.6" r="26.2"/>
<circle fill="#7FC580" cx="313.3" cy="240.4" r="26.2"/>
<text transform="matrix(1 0 0 1 297.7919 246.9659)" fill="#FFFFFF" font-family="'BrandonGrotesque-Bold'" font-size="15.5889">2016</text>
<rect x="164" y="568.5" fill="none" stroke="#3F566B" stroke-miterlimit="10" width="81.1" height="99.7"/>
<circle fill="none" stroke="#3F566B" stroke-miterlimit="10" cx="176" cy="583.7" r="6.4"/>
<line fill="none" stroke="#3F566B" stroke-miterlimit="10" x1="189" y1="606.5" x2="229" y2="606.5"/>
<line fill="none" stroke="#3F566B" stroke-miterlimit="10" x1="189" y1="608.5" x2="229" y2="608.5"/>
<line fill="none" stroke="#3F566B" stroke-miterlimit="10" x1="189" y1="610.5" x2="229" y2="610.5"/>
<line fill="none" stroke="#3F566B" stroke-miterlimit="10" x1="189" y1="612.5" x2="229" y2="612.5"/>
<line fill="none" stroke="#3F566B" stroke-miterlimit="10" x1="189" y1="614.5" x2="229" y2="614.5"/>
<line fill="none" stroke="#3F566B" stroke-miterlimit="10" x1="189" y1="616.5" x2="229" y2="616.5"/>
<line fill="none" stroke="#3F566B" stroke-miterlimit="10" x1="189" y1="618.5" x2="229" y2="618.5"/>
<line fill="none" stroke="#3F566B" stroke-miterlimit="10" x1="189" y1="620.5" x2="218" y2="620.5"/>
<line fill="none" stroke="#3F566B" stroke-miterlimit="10" x1="189" y1="622.5" x2="213" y2="622.5"/>
<line fill="none" stroke="#3F566B" stroke-miterlimit="10" x1="189" y1="627.5" x2="229" y2="627.5"/>
<line fill="none" stroke="#3F566B" stroke-miterlimit="10" x1="189" y1="629.5" x2="229" y2="629.5"/>
<line fill="none" stroke="#3F566B" stroke-miterlimit="10" x1="189" y1="631.5" x2="229" y2="631.5"/>
<line fill="none" stroke="#3F566B" stroke-miterlimit="10" x1="189" y1="633.5" x2="229" y2="633.5"/>
<line fill="none" stroke="#3F566B" stroke-miterlimit="10" x1="189" y1="635.5" x2="229" y2="635.5"/>
<line fill="none" stroke="#3F566B" stroke-miterlimit="10" x1="189" y1="637.5" x2="229" y2="637.5"/>
<line fill="none" stroke="#3F566B" stroke-miterlimit="10" x1="189" y1="639.5" x2="229" y2="639.5"/>
<line fill="none" stroke="#3F566B" stroke-miterlimit="10" x1="189" y1="641.5" x2="218" y2="641.5"/>
<line fill="none" stroke="#3F566B" stroke-miterlimit="10" x1="189" y1="643.5" x2="213" y2="643.5"/>
<line fill="none" stroke="#3F566B" stroke-miterlimit="10" x1="189" y1="648.5" x2="229" y2="648.5"/>
<line fill="none" stroke="#3F566B" stroke-miterlimit="10" x1="189" y1="650.5" x2="229" y2="650.5"/>
<line fill="none" stroke="#3F566B" stroke-miterlimit="10" x1="189" y1="652.5" x2="229" y2="652.5"/>
<line fill="none" stroke="#3F566B" stroke-miterlimit="10" x1="189" y1="654.5" x2="229" y2="654.5"/>
<line fill="none" stroke="#3F566B" stroke-miterlimit="10" x1="189" y1="656.5" x2="218" y2="656.5"/>
<line fill="none" stroke="#3F566B" stroke-miterlimit="10" x1="189" y1="658.5" x2="213" y2="658.5"/>
<line fill="none" stroke="#3F566B" stroke-miterlimit="10" x1="170" y1="596.5" x2="183" y2="596.5"/>
<line fill="none" stroke="#3F566B" stroke-miterlimit="10" x1="170" y1="598.5" x2="183" y2="598.5"/>
<line fill="none" stroke="#3F566B" stroke-miterlimit="10" x1="170" y1="600.5" x2="183" y2="600.5"/>
<line fill="none" stroke="#3F566B" stroke-miterlimit="10" x1="170" y1="602.5" x2="183" y2="602.5"/>
<line fill="none" stroke="#3F566B" stroke-width="2" stroke-miterlimit="10" x1="189" y1="579" x2="238" y2="579"/>
<line fill="none" stroke="#3F566B" stroke-width="2" stroke-miterlimit="10" x1="189" y1="583" x2="238" y2="583"/>
<line fill="none" stroke="#3F566B" stroke-width="2" stroke-miterlimit="10" x1="189" y1="595" x2="227" y2="595"/>
<line fill="none" stroke="#3F566B" stroke-width="2" stroke-miterlimit="10" x1="189" y1="591" x2="238" y2="591"/>
<line fill="none" stroke="#3F566B" stroke-width="2" stroke-miterlimit="10" x1="189" y1="587" x2="238" y2="587"/>
</svg>
