<?xml version="1.0" encoding="utf-8"?>
<!-- Generator: Adobe Illustrator 18.1.1, SVG Export Plug-In . SVG Version: 6.00 Build 0)  -->
<!DOCTYPE svg PUBLIC "-//W3C//DTD SVG 1.1//EN" "http://www.w3.org/Graphics/SVG/1.1/DTD/svg11.dtd">
<svg version="1.1" id="Layer_1" xmlns="http://www.w3.org/2000/svg" xmlns:xlink="http://www.w3.org/1999/xlink" x="0px" y="0px"
	 viewBox="0 0 812 586" enable-background="new 0 0 812 586" xml:space="preserve">
<g>
	<g>
		<g>
			
				<rect x="-27.7" y="451.3" transform="matrix(0.5903 0.8071 -0.8071 0.5903 353.6684 206.6601)" fill="#191919" width="1.8" height="0.9"/>
		</g>
		<g>
			<path fill="#191919" d="M-24.4,451.1l-1.1-1.5l1.5-1.1l1.1,1.5L-24.4,451.1z M-21.4,449l-1.1-1.5l1.5-1.1l1.1,1.5L-21.4,449z
				 M-18.4,446.8l-1.1-1.5l1.5-1.1l1.1,1.5L-18.4,446.8z M-15.5,444.6l-1.1-1.5l1.5-1.1l1.1,1.5L-15.5,444.6z M-12.5,442.5l-1.1-1.5
				l1.5-1.1l1.1,1.5L-12.5,442.5z M-9.5,440.3l-1.1-1.5l1.5-1.1l1.1,1.5L-9.5,440.3z M-6.6,438.1l-1.1-1.5l1.5-1.1l1.1,1.5
				L-6.6,438.1z M-3.6,436l-1.1-1.5l1.5-1.1l1.1,1.5L-3.6,436z M-0.7,433.8l-1.1-1.5l1.5-1.1l1.1,1.5L-0.7,433.8z M2.3,431.6
				l-1.1-1.5l1.5-1.1l1.1,1.5L2.3,431.6z M5.3,429.5L4.2,428l1.5-1.1l1.1,1.5L5.3,429.5z M8.2,427.3l-1.1-1.5l1.5-1.1l1.1,1.5
				L8.2,427.3z M11.2,425.1l-1.1-1.5l1.5-1.1l1.1,1.5L11.2,425.1z M14.2,423l-1.1-1.5l1.5-1.1l1.1,1.5L14.2,423z M17.1,420.8
				l-1.1-1.5l1.5-1.1l1.1,1.5L17.1,420.8z M20.1,418.6l-1.1-1.5l1.5-1.1l1.1,1.5L20.1,418.6z M23.1,416.5L22,415l1.5-1.1l1.1,1.5
				L23.1,416.5z M26,414.3l-1.1-1.5l1.5-1.1l1.1,1.5L26,414.3z M29,412.1l-1.1-1.5l1.5-1.1l1.1,1.5L29,412.1z M31.9,410l-1.1-1.5
				l1.5-1.1l1.1,1.5L31.9,410z M34.9,407.8l-1.1-1.5l1.5-1.1l1.1,1.5L34.9,407.8z M37.9,405.6l-1.1-1.5l1.5-1.1l1.1,1.5L37.9,405.6z
				 M40.8,403.5l-1.1-1.5l1.5-1.1l1.1,1.5L40.8,403.5z M43.8,401.3l-1.1-1.5l1.5-1.1l1.1,1.5L43.8,401.3z M46.8,399.1l-1.1-1.5
				l1.5-1.1l1.1,1.5L46.8,399.1z M49.7,397l-1.1-1.5l1.5-1.1l1.1,1.5L49.7,397z M52.7,394.8l-1.1-1.5l1.5-1.1l1.1,1.5L52.7,394.8z
				 M55.7,392.6l-1.1-1.5l1.5-1.1l1.1,1.5L55.7,392.6z M58.6,390.5l-1.1-1.5l1.5-1.1l1.1,1.5L58.6,390.5z M61.6,388.3l-1.1-1.5
				l1.5-1.1l1.1,1.5L61.6,388.3z M64.5,386.1l-1.1-1.5l1.5-1.1L66,385L64.5,386.1z M67.5,384l-1.1-1.5l1.5-1.1l1.1,1.5L67.5,384z
				 M70.5,381.8l-1-1.5l1.5-1l1,1.5L70.5,381.8z M73.5,379.7l-1-1.5l1.5-1l1,1.5L73.5,379.7z M76.5,377.6l-1-1.5l1.4-1l0,0l0,0l0,0
				l1.2,1.4l-0.2,0.1L76.5,377.6z M79.5,375.3l-1.2-1.4c0.4-0.4,0.8-0.8,1.4-1.2l1.2,1.4C80.3,374.5,79.9,374.9,79.5,375.3z
				 M82.2,372.8l-1.3-1.3c0.4-0.4,0.9-0.8,1.3-1.3l1.3,1.3C83.1,371.9,82.6,372.4,82.2,372.8z M84.8,370.2l-1.3-1.3
				c0.4-0.4,0.9-0.9,1.3-1.3l1.3,1.3C85.7,369.3,85.3,369.8,84.8,370.2z M87.4,367.6l-1.3-1.3c0.4-0.4,0.8-0.9,1.2-1.3l1.4,1.2
				C88.3,366.7,87.9,367.1,87.4,367.6z M89.9,364.8l-1.4-1.2c0.4-0.5,0.8-0.9,1.2-1.4l1.4,1.2C90.8,363.9,90.4,364.3,89.9,364.8z
				 M92.3,361.9l-1.5-1.1c0.4-0.5,0.7-1,1-1.5l1.5,1C93.1,360.9,92.7,361.4,92.3,361.9z M94.4,358.8l-1.6-1c0.3-0.5,0.6-1,0.9-1.6
				l1.6,0.9C95,357.7,94.7,358.3,94.4,358.8z M96.3,355.6l-1.6-0.9c0.3-0.5,0.6-1,0.9-1.6l1.6,0.9C96.9,354.5,96.6,355.1,96.3,355.6
				z M98.1,352.4l-1.6-0.9c0.3-0.5,0.6-1.1,0.9-1.6l1.6,0.9C98.7,351.3,98.4,351.9,98.1,352.4z M99.9,349.2l-1.6-0.9
				c0.3-0.5,0.6-1.1,0.9-1.6l1.6,0.9C100.4,348.1,100.2,348.6,99.9,349.2z M101.6,345.9L100,345c0.3-0.5,0.6-1.1,0.8-1.6l1.6,0.8
				C102.2,344.8,101.9,345.3,101.6,345.9z M103.3,342.6l-1.7-0.8c0.3-0.6,0.5-1.1,0.8-1.6l1.7,0.8
				C103.8,341.5,103.5,342,103.3,342.6z M104.9,339.2l-1.7-0.8c0.3-0.6,0.5-1.1,0.7-1.7l1.7,0.7
				C105.4,338.1,105.1,338.6,104.9,339.2z M106.2,335.8l-1.7-0.6c0.2-0.5,0.4-1.1,0.8-1.8l1.7,0.8
				C106.6,334.8,106.4,335.4,106.2,335.8z M107.7,332.6l-1.6-0.9c0.3-0.5,0.6-1.1,0.9-1.6l1.6,0.9
				C108.3,331.5,108,332.1,107.7,332.6z M109.5,329.4l-1.6-0.9c0.3-0.5,0.6-1,0.9-1.6l1.6,0.9C110.1,328.3,109.8,328.9,109.5,329.4z
				 M111.4,326.2l-1.6-0.9c0.3-0.5,0.6-1,1-1.6l1.6,1C112,325.2,111.7,325.7,111.4,326.2z M113.3,323.1l-1.6-1l1-1.6l1.6,1
				L113.3,323.1z M115.2,320l-1.6-1l1-1.6l1.5,1L115.2,320z M117.2,316.9l-1.5-1l1-1.5l1.5,1L117.2,316.9z M119.2,313.8l-1.5-1
				l1-1.5l1.5,1L119.2,313.8z M121.3,310.8l-1.5-1c0.3-0.5,0.7-1,1-1.5l1.5,1C121.9,309.7,121.6,310.3,121.3,310.8z M123.3,307.7
				l-1.5-1c0.4-0.5,0.7-1,1-1.5l1.5,1C124,306.7,123.7,307.2,123.3,307.7z M125.4,304.7l-1.5-1.1c0.4-0.5,0.7-1,1.1-1.5l1.5,1.1
				C126.1,303.7,125.8,304.2,125.4,304.7z M127.5,301.8l-1.5-1.1c0.3-0.4,0.7-0.9,1.1-1.5l1.4,1.1
				C128.2,300.9,127.9,301.4,127.5,301.8z M129.8,298.9l-1.4-1.1l1.2-1.4l1.4,1.1L129.8,298.9z M132.1,296l-1.4-1.2l1.2-1.4l1.4,1.2
				L132.1,296z M134.4,293.1L133,292l1.2-1.4l1.4,1.2L134.4,293.1z M136.7,290.3l-1.4-1.2l1.2-1.4l1.4,1.2L136.7,290.3z M139,287.4
				l-1.4-1.2l1.2-1.4l1.4,1.2L139,287.4z M141.4,284.6l-1.4-1.2l1.2-1.4l1.4,1.2L141.4,284.6z M143.7,281.7l-1.4-1.2l1.2-1.4
				l1.4,1.2L143.7,281.7z M146,278.9l-1.4-1.2l1.2-1.4l1.4,1.2L146,278.9z M148.3,276l-1.4-1.2l1.2-1.4l1.4,1.2L148.3,276z
				 M150.7,273.2l-1.4-1.2l1.2-1.4l1.4,1.2L150.7,273.2z M153,270.4l-1.4-1.2l1.2-1.4l1.4,1.2L153,270.4z M155.3,267.5l-1.4-1.2
				l1.2-1.4l1.4,1.2L155.3,267.5z M157.7,264.7l-1.4-1.2l1.2-1.4l1.4,1.2L157.7,264.7z M160,261.8l-1.4-1.2l1.2-1.4l1.4,1.2
				L160,261.8z M162.3,259l-1.4-1.2l1.2-1.4l1.4,1.2L162.3,259z M164.7,256.2l-1.4-1.2l1.2-1.4l1.4,1.2L164.7,256.2z M167,253.3
				l-1.4-1.2l1.2-1.4l1.4,1.2L167,253.3z M169.4,250.5l-1.4-1.2l1.2-1.4l1.4,1.2L169.4,250.5z M171.7,247.7l-1.4-1.2l1.2-1.4
				l1.4,1.2L171.7,247.7z M174,244.8l-1.4-1.2l1.2-1.4l1.4,1.2L174,244.8z M176.4,242l-1.4-1.2l1.2-1.4l1.4,1.2L176.4,242z
				 M178.7,239.1l-1.4-1.2l1.2-1.4l1.4,1.2L178.7,239.1z M181.1,236.3l-1.4-1.2l1.2-1.4l1.4,1.2L181.1,236.3z M183.4,233.5l-1.4-1.2
				l1.2-1.4l1.4,1.2L183.4,233.5z M185.8,230.6l-1.4-1.2l1.2-1.4l1.4,1.2L185.8,230.6z M188.1,227.8l-1.4-1.2l1.2-1.4l1.4,1.2
				L188.1,227.8z M190.5,225l-1.4-1.2l1.2-1.4l1.5,1.1L190.5,225z M192.8,222.1l-1.4-1.1l1.1-1.4l1.4,1.1L192.8,222.1z M195.1,219.2
				l-1.4-1.1l1.1-1.4l1.4,1.1L195.1,219.2z M197.3,216.3l-1.4-1.1l1.1-1.4l1.4,1.1L197.3,216.3z M199.6,213.6l-1.3-1.3
				c0.3-0.3,0.8-0.8,1.4-1.3l1.2,1.4C200.3,212.8,199.9,213.2,199.6,213.6z M202.3,211.2l-1.2-1.4c0.4-0.4,0.9-0.8,1.5-1.2l1.1,1.5
				C203.2,210.4,202.7,210.8,202.3,211.2z M205.2,209l-1.1-1.5c0.5-0.3,1-0.7,1.5-1.1l1,1.5C206.1,208.3,205.6,208.6,205.2,209z
				 M208.2,207l-1-1.6c0.5-0.3,1.1-0.6,1.6-0.9l0.9,1.6C209.2,206.4,208.7,206.7,208.2,207z M211.3,205.3l-0.8-1.6
				c0.6-0.3,1.1-0.5,1.7-0.8l0.8,1.7C212.4,204.7,211.8,205,211.3,205.3z M214.6,203.8l-0.7-1.7c0.6-0.2,1.2-0.4,1.8-0.7l0.6,1.7
				C215.7,203.4,215.1,203.6,214.6,203.8z M218,202.6l-0.5-1.8l1.8-0.5l0.5,1.8L218,202.6z M221.5,201.6l-0.5-1.8l1.8-0.5l0.5,1.8
				L221.5,201.6z M225,200.5l-0.5-1.8l1.8-0.5l0.5,1.8L225,200.5z M228.6,199.5l-0.5-1.8l1.8-0.5l0.5,1.8L228.6,199.5z M232.1,198.4
				l-0.5-1.8l1.8-0.5l0.5,1.8L232.1,198.4z M235.6,197.3l-0.5-1.8l1.7-0.6l0.6,1.8L235.6,197.3z M239.1,196.2l-0.6-1.8
				c0.6-0.2,1.2-0.4,1.7-0.6l0.6,1.7C240.3,195.8,239.7,196,239.1,196.2z M242.6,195.1l-0.6-1.7c0.6-0.2,1.2-0.4,1.7-0.6l0.6,1.7
				C243.8,194.7,243.2,194.9,242.6,195.1z M246.1,193.9l-0.6-1.7c0.6-0.2,1.2-0.4,1.7-0.6l0.6,1.7
				C247.2,193.4,246.7,193.6,246.1,193.9z M249.6,192.6l-0.7-1.7c0.5-0.2,1.1-0.4,1.7-0.7l0.8,1.7
				C250.7,192.1,250.1,192.3,249.6,192.6z M253,191l-0.8-1.7c0.5-0.2,1.1-0.5,1.6-0.8l0.8,1.7C254.1,190.5,253.5,190.8,253,191z
				 M256.3,189.4l-0.8-1.6c0.5-0.3,1.1-0.5,1.6-0.8l0.8,1.6C257.4,188.9,256.8,189.1,256.3,189.4z M259.6,187.7l-0.8-1.6
				c0.5-0.3,1.1-0.6,1.6-0.9l0.9,1.6C260.7,187.2,260.1,187.5,259.6,187.7z M262.8,186l-0.9-1.6l1.6-0.9l0.9,1.6L262.8,186z
				 M266.1,184.3l-0.9-1.6l1.6-0.9l0.9,1.6L266.1,184.3z M269.3,182.5l-0.9-1.6l1.6-0.9l0.9,1.6L269.3,182.5z M272.5,180.7l-0.9-1.6
				l1.6-0.9l0.9,1.6L272.5,180.7z M275.7,178.9l-0.9-1.6l1.6-0.9l0.9,1.6L275.7,178.9z M278.9,177l-0.9-1.6l1.6-0.9l0.9,1.6
				L278.9,177z M282.1,175.1l-0.9-1.6c0.5-0.3,1.1-0.6,1.6-1l1,1.6C283.2,174.5,282.6,174.8,282.1,175.1z M285.2,173.2l-1-1.6
				c0.5-0.3,1.1-0.7,1.5-1l1,1.6C286.3,172.5,285.8,172.9,285.2,173.2z M288.4,171.2l-1-1.5c0.6-0.4,1.1-0.7,1.5-1l1.1,1.5
				C289.4,170.5,288.9,170.8,288.4,171.2z M291.4,169l-1.2-1.4c0.4-0.3,0.5-0.5,0.6-0.5c0.2-0.2,0.4-0.4,0.7-0.7l1.3,1.3
				c-0.2,0.2-0.4,0.4-0.6,0.6C292.1,168.5,291.8,168.7,291.4,169z M294.1,166.5l-1.2-1.4c0.5-0.4,1-0.8,1.5-1.1l1.1,1.5
				C295.1,165.8,294.6,166.2,294.1,166.5z M297,164.4l-1-1.5c0.5-0.3,1-0.7,1.6-1l1,1.6C298.1,163.8,297.5,164.1,297,164.4z
				 M300.1,162.6l-0.9-1.6c0.5-0.3,1.1-0.6,1.6-0.9l0.8,1.6C301.2,162,300.7,162.3,300.1,162.6z M303.3,160.9l-0.8-1.7
				c0.6-0.3,1.1-0.5,1.7-0.8l0.7,1.7C304.4,160.4,303.9,160.6,303.3,160.9z M306.6,159.5l-0.6-1.7c0.6-0.2,1.2-0.4,1.8-0.6l0.5,1.8
				C307.8,159.1,307.2,159.3,306.6,159.5z M310.1,158.5l-0.5-1.8c0.5-0.1,1.1-0.3,1.7-0.5l0.6,1.8
				C311.2,158.2,310.6,158.4,310.1,158.5z M313.7,157.4l-0.6-1.7c0.6-0.2,1.1-0.4,1.7-0.6l0.6,1.7
				C314.8,157,314.2,157.2,313.7,157.4z M317.1,156.1l-0.6-1.7c0.6-0.2,1.1-0.4,1.7-0.6l0.6,1.7
				C318.3,155.7,317.7,155.9,317.1,156.1z M320.6,154.9l-0.7-1.7l1.7-0.7l0.7,1.7L320.6,154.9z M324,153.5l-0.7-1.7l1.7-0.7l0.7,1.7
				L324,153.5z M327.5,152.2l-0.7-1.7l1.7-0.7l0.7,1.7L327.5,152.2z M330.9,150.8l-0.7-1.7l1.7-0.7l0.7,1.7L330.9,150.8z
				 M334.3,149.4l-0.7-1.7c0.5-0.2,0.8-0.4,1.1-0.5c0.2-0.1,0.3-0.2,0.5-0.3l0.8,1.6c-0.2,0.1-0.4,0.2-0.6,0.3
				C335.1,149,334.8,149.2,334.3,149.4z M337.7,147.7l-0.9-1.6c0.5-0.3,1-0.6,1.6-0.9l0.9,1.6C338.7,147.1,338.2,147.4,337.7,147.7z
				 M340.9,145.9l-0.9-1.6c0.5-0.3,1.1-0.6,1.6-0.9l0.9,1.6C342,145.3,341.4,145.6,340.9,145.9z M344.1,144l-0.9-1.6l1.6-0.9
				l0.9,1.6L344.1,144z M347.2,142.1l-0.9-1.6l1.6-0.9l1,1.6L347.2,142.1z M350.4,140.2l-1-1.6l0.2-0.1c0.1-0.2,0.4-0.5,0.9-1
				l1.4,1.2c-0.6,0.7-1,1.1-1,1.1l-0.2,0.2L350.4,140.2z M353.2,137.4l-1.3-1.3c0.4-0.4,0.8-0.9,1.3-1.3l1.3,1.3
				C354,136.6,353.5,137,353.2,137.4z M355.7,134.8l-1.3-1.3c0.4-0.4,0.8-0.9,1.3-1.3l1.3,1.3C356.5,134,356.1,134.4,355.7,134.8z
				 M358.3,132.2l-1.3-1.3c0.4-0.4,0.9-0.8,1.3-1.3l1.3,1.3C359.2,131.4,358.7,131.8,358.3,132.2z M360.9,129.7l-1.3-1.3
				c0.4-0.4,0.9-0.8,1.4-1.3l1.2,1.4C361.8,128.9,361.4,129.3,360.9,129.7z M363.6,127.2l-1.2-1.4c0.5-0.4,0.9-0.8,1.4-1.2l1.2,1.4
				C364.5,126.4,364.1,126.8,363.6,127.2z M366.4,124.8l-1.2-1.4c0.5-0.4,0.9-0.8,1.4-1.2l1.2,1.4
				C367.3,124,366.8,124.4,366.4,124.8z M369.2,122.5L368,121c0.5-0.4,1-0.8,1.4-1.2l1.1,1.4C370.1,121.7,369.6,122.1,369.2,122.5z
				 M372,120.2l-1.1-1.5c0.5-0.4,1-0.7,1.5-1.1l1.1,1.5C373,119.5,372.5,119.8,372,120.2z M375,118l-1.1-1.5c0.5-0.4,1-0.7,1.5-1.1
				l1,1.5C376,117.4,375.5,117.7,375,118z M378,116l-1-1.5c0.5-0.3,1-0.7,1.6-1l1,1.6C379,115.4,378.5,115.7,378,116z M381.1,114.1
				l-0.9-1.6c0.5-0.3,1.1-0.6,1.6-0.9l0.9,1.6C382.1,113.5,381.6,113.8,381.1,114.1z"/>
		</g>
		<g>
			<path fill="#191919" d="M383.7,112.7l-0.2-0.3h-0.4v-0.7l-0.3-0.6c0.3-0.1,0.6-0.3,0.8-0.4l1.3-0.6v2.4h-0.7
				C384.1,112.5,383.9,112.6,383.7,112.7z"/>
		</g>
		<g>
			<path fill="#191919" d="M384.4,116.3c-0.4-0.3-0.7-0.4-0.7-0.4l-0.5-0.3l0-1.5h1.8v0.4c0.1,0.1,0.2,0.1,0.4,0.2L384.4,116.3z"/>
		</g>
		<g>
			<path fill="#191919" d="M391.8,124.5c-0.2-0.5-0.4-1.1-0.7-1.6l1.6-0.9c0.4,0.6,0.7,1.3,0.9,2L391.8,124.5z M390,121.3
				c-0.4-0.5-0.8-1-1.2-1.4l1.3-1.3c0.5,0.5,0.9,1,1.3,1.6L390,121.3z M387.4,118.6c-0.5-0.4-1-0.8-1.5-1.2l1.1-1.5
				c0.6,0.4,1.1,0.8,1.6,1.3L387.4,118.6z"/>
		</g>
		<g>
			<path fill="#191919" d="M394,127.1l-1.8,0c0-0.3,0-0.5,0-0.8l1.8-0.2C394,126.4,394,126.7,394,127.1z"/>
		</g>
	</g>
	<g>
		<g>
			<path fill="#191919" d="M351,140.3c-0.6-0.1-1-0.2-1-0.2l0.5-1.8c0,0,0.3,0.1,0.8,0.1L351,140.3z"/>
		</g>
		<g>
			<path fill="#191919" d="M352.9,140.4l0-1.8c0.5,0,1.1-0.1,1.6-0.1l0.3,1.8C354.2,140.4,353.6,140.4,352.9,140.4z M356.6,139.9
				l-0.5-1.8c0.5-0.1,1.1-0.3,1.6-0.5l0.7,1.7C357.8,139.5,357.2,139.7,356.6,139.9z M360.1,138.5l-0.9-1.6c0.5-0.3,1-0.5,1.4-0.9
				l1,1.5C361.2,137.9,360.6,138.2,360.1,138.5z M363.2,136.5l-1.1-1.5c0.4-0.3,0.9-0.7,1.4-1.1l1.1,1.5
				C364.1,135.8,363.6,136.2,363.2,136.5z M366,134.5l-1-1.5c0.5-0.3,1-0.7,1.5-1l1,1.5C367,133.8,366.5,134.2,366,134.5z
				 M368.9,132.5l-1-1.5c0.5-0.3,1-0.6,1.5-1l1,1.6C369.9,131.9,369.4,132.2,368.9,132.5z M371.9,130.7l-1-1.6
				c0.5-0.3,1-0.6,1.5-0.9l1,1.6C372.9,130,372.4,130.3,371.9,130.7z M374.9,128.8l-1-1.6l1.5-0.9l1,1.6L374.9,128.8z M377.9,127
				l-0.9-1.6l1.5-0.9l0.9,1.6L377.9,127z M380.9,125.2l-0.9-1.6l1.5-0.9l0.9,1.6L380.9,125.2z"/>
		</g>
		<g>
			<polygon fill="#191919" points="383.9,123.4 383,121.8 383.3,121.6 383.3,121.2 385.2,121.2 385.2,122.7 			"/>
		</g>
		<g>
			
				<rect x="383.3" y="117.7" transform="matrix(2.379665e-02 0.9997 -0.9997 2.379665e-02 493.6 -268.3124)" fill="#191919" width="1.8" height="1.8"/>
		</g>
		<g>
			
				<rect x="383.7" y="114.6" transform="matrix(2.344246e-02 0.9997 -0.9997 2.344246e-02 490.5736 -271.2203)" fill="#191919" width="0.9" height="1.8"/>
		</g>
	</g>
	<g>
		<path fill="#FFFFFF" d="M230.1,428.1c-0.4,22.1,23.8,31.5,23.8,31.5S344.6,493,368.1,500c22.6,6.7,38.8-18,38.8-18
			S588.3,143.5,601,120.9c0,0,8.7-13,0.7-22.4l-9.4-13.3"/>
		<path fill="#191919" d="M375.8,502c-2.6,0-5.3-0.4-8-1.2c-23.2-6.9-113.3-40-114.2-40.3c-0.3-0.1-24.8-10-24.4-32.4l1.8,0
			c-0.1,8.9,3.7,16.7,11.4,23.3c5.8,5,11.8,7.3,11.8,7.4c0.9,0.3,90.9,33.4,114.1,40.3c21.7,6.5,37.6-17.3,37.8-17.6
			c1.8-3.3,181.6-338.7,194.1-361c0.1-0.2,8.3-12.6,0.8-21.4l-9.4-13.4l1.5-1.1l9.4,13.3c8.3,9.8-0.6,23.3-0.7,23.4
			c-12.5,22.2-192.3,357.6-194.1,361C407.5,482.7,394.5,502,375.8,502z"/>
	</g>
	<g>
		<path fill="#FFFFFF" d="M230.6,422.6c-3.8,17.4,13.6,24.8,13.6,24.8s93.7,31.9,117,39.3c23.3,7.5,33.7-13.9,33.7-13.9
			s182.7-337.4,195.4-360c0,0,11.1-16.4,2-27.6l-5.1-4.9"/>
		<path fill="#191919" d="M370.7,489.2c-3,0-6.2-0.5-9.8-1.6c-23-7.4-116.1-39-117-39.3c-0.2-0.1-18.1-7.9-14.2-25.9l1.8,0.4
			c-3.6,16.5,12.4,23.5,13.1,23.8c0.9,0.3,93.9,31.9,116.9,39.3c3.4,1.1,6.5,1.5,9.3,1.5c15.7,0,22.9-14.3,23.3-15
			c1.8-3.4,182.9-337.7,195.5-360.1c0.1-0.2,10.6-16,2.1-26.6l-5.1-4.8l1.3-1.3l5.2,5c3.9,4.8,4.8,11.3,2.5,18.9
			c-1.7,5.6-4.4,9.7-4.5,9.9c-12.5,22.2-193.6,356.6-195.4,359.9C395.6,473.4,387.7,489.2,370.7,489.2z"/>
	</g>
	<g>
		<g>
			<path fill="#FFFFFF" d="M484.3,428.8c0,0,43.1-5.2,33.7-59.7c0,0-5.9-19.1-32-27.5s-34.4,13.8-34.4,13.8s-15.2,40.4,31.5,48.2
				c0.3,0.1,0.6,0.1,1,0.2"/>
		</g>
		<g>
			<g>
				<path fill="#191919" d="M484.4,429.7l-0.2-1.8c0,0,0.3,0,0.9-0.1l0.3,1.8C484.7,429.7,484.4,429.7,484.4,429.7z"/>
			</g>
			<g>
				<path fill="#191919" d="M487.2,429.2l-0.4-1.8c0.5-0.1,1.1-0.3,1.7-0.5l0.5,1.8C488.3,428.9,487.7,429,487.2,429.2z
					 M490.8,428.1l-0.6-1.7c0.5-0.2,1.1-0.4,1.7-0.6l0.7,1.7C491.9,427.7,491.3,427.9,490.8,428.1z M494.2,426.8l-0.7-1.7
					c0.5-0.2,1.1-0.5,1.6-0.7l0.8,1.7C495.4,426.3,494.8,426.6,494.2,426.8z M497.6,425.2l-0.9-1.6c0.5-0.3,1-0.6,1.6-0.9l0.9,1.6
					C498.7,424.6,498.2,424.9,497.6,425.2z M500.9,423.3l-1-1.5c0.5-0.3,1-0.6,1.5-1l1.1,1.5C501.9,422.6,501.4,423,500.9,423.3z
					 M503.9,421.2l-1.1-1.5c0.5-0.4,0.9-0.7,1.4-1.1l1.2,1.4C504.9,420.4,504.4,420.8,503.9,421.2z M506.8,418.7l-1.3-1.3
					c0.4-0.4,0.9-0.8,1.3-1.2l1.3,1.3C507.7,417.9,507.2,418.3,506.8,418.7z M509.4,416.1l-1.4-1.2c0.4-0.4,0.8-0.9,1.2-1.4l1.4,1.2
					C510.2,415.1,509.8,415.6,509.4,416.1z M511.7,413.1l-1.5-1.1c0.3-0.5,0.7-1,1-1.5l1.5,1C512.4,412.1,512.1,412.6,511.7,413.1z
					 M513.8,410l-1.6-0.9c0.3-0.5,0.6-1,0.9-1.6l1.6,0.9C514.4,408.9,514.1,409.5,513.8,410z M515.5,406.7l-1.7-0.8
					c0.3-0.5,0.5-1.1,0.7-1.6l1.7,0.7C516.1,405.6,515.8,406.2,515.5,406.7z M481.1,404.2c-0.6-0.1-1.2-0.2-1.8-0.4l0.4-1.8
					c0.6,0.1,1.2,0.2,1.8,0.4L481.1,404.2z M477.5,403.4c-0.6-0.2-1.2-0.3-1.8-0.5l0.5-1.8c0.6,0.2,1.2,0.3,1.7,0.5L477.5,403.4z
					 M517,403.3l-1.7-0.6c0.2-0.6,0.4-1.1,0.6-1.7l1.7,0.6C517.4,402.1,517.2,402.7,517,403.3z M473.9,402.4
					c-0.6-0.2-1.2-0.4-1.8-0.6l0.6-1.7c0.6,0.2,1.1,0.4,1.7,0.6L473.9,402.4z M470.4,401.2c-0.6-0.2-1.2-0.5-1.7-0.7l0.7-1.7
					c0.5,0.2,1.1,0.5,1.7,0.7L470.4,401.2z M518.2,399.7l-1.8-0.5c0.2-0.6,0.3-1.1,0.5-1.7l1.8,0.4
					C518.5,398.5,518.3,399.1,518.2,399.7z M467,399.7c-0.6-0.3-1.1-0.6-1.7-0.9l0.9-1.6c0.5,0.3,1,0.5,1.6,0.8L467,399.7z
					 M463.7,397.9c-0.5-0.3-1.1-0.7-1.6-1l1-1.5c0.5,0.3,1,0.6,1.5,1L463.7,397.9z M519,396.1l-1.8-0.4c0.1-0.6,0.2-1.2,0.3-1.8
					l1.8,0.3C519.3,394.9,519.2,395.5,519,396.1z M460.6,395.8c-0.5-0.4-1-0.8-1.5-1.2l1.2-1.4c0.4,0.4,0.9,0.7,1.4,1.1L460.6,395.8
					z M457.7,393.4c-0.5-0.4-0.9-0.9-1.3-1.3l1.4-1.2c0.4,0.4,0.8,0.8,1.2,1.3L457.7,393.4z M519.7,392.5l-1.8-0.2
					c0.1-0.6,0.2-1.2,0.2-1.8l1.8,0.2C519.8,391.2,519.7,391.9,519.7,392.5z M455.2,390.6c-0.4-0.5-0.8-1-1.1-1.5l1.5-1.1
					c0.3,0.5,0.7,0.9,1.1,1.4L455.2,390.6z M520.1,388.8l-1.8-0.1c0-0.6,0.1-1.2,0.1-1.8l1.8,0.1
					C520.1,387.5,520.1,388.2,520.1,388.8z M453,387.5c-0.3-0.5-0.6-1.1-0.9-1.6l1.6-0.9c0.3,0.5,0.6,1,0.9,1.5L453,387.5z
					 M520.2,385.1l-1.8,0c0-0.4,0-0.8,0-1.3l0-0.6l1.8,0l0,0.6C520.2,384.2,520.2,384.6,520.2,385.1z M451.2,384.2
					c-0.3-0.6-0.5-1.2-0.7-1.7l1.7-0.7c0.2,0.5,0.4,1.1,0.7,1.6L451.2,384.2z M518.4,381.4c0-0.6,0-1.2-0.1-1.8l1.8-0.1
					c0,0.6,0.1,1.2,0.1,1.8L518.4,381.4z M449.9,380.7c-0.2-0.6-0.4-1.2-0.5-1.8l1.8-0.4c0.1,0.6,0.3,1.1,0.5,1.7L449.9,380.7z
					 M518.2,377.8c0-0.6-0.1-1.2-0.2-1.8l1.8-0.2c0.1,0.6,0.1,1.2,0.2,1.8L518.2,377.8z M448.9,377c-0.1-0.6-0.2-1.2-0.3-1.9
					l1.8-0.3c0.1,0.6,0.2,1.2,0.3,1.8L448.9,377z M517.8,374.2c-0.1-0.6-0.1-1.2-0.2-1.8l1.8-0.3c0.1,0.6,0.2,1.2,0.2,1.8
					L517.8,374.2z M448.4,373.3c-0.1-0.6-0.1-1.3-0.1-1.9l1.8-0.1c0,0.6,0.1,1.2,0.1,1.8L448.4,373.3z M517.3,370.6
					c-0.1-0.4-0.1-0.9-0.2-1.3c0-0.1,0-0.1-0.1-0.3l1.7-0.6c0.1,0.3,0.1,0.4,0.1,0.4l0,0.1c0.1,0.5,0.2,1,0.2,1.4L517.3,370.6z
					 M450.1,369.6l-1.8,0c0-0.6,0-1.3,0-1.9l1.8,0.1C450.1,368.4,450.1,369,450.1,369.6z M516.3,367.4c-0.2-0.5-0.5-1-0.8-1.6
					l1.6-0.9c0.3,0.6,0.6,1.2,0.8,1.7L516.3,367.4z M450.3,366l-1.8-0.2c0.1-0.6,0.1-1.3,0.2-1.9l1.8,0.2
					C450.4,364.8,450.3,365.4,450.3,366z M514.6,364.2c-0.3-0.5-0.6-1-0.9-1.5l1.5-1c0.4,0.6,0.7,1.1,1,1.6L514.6,364.2z
					 M450.7,362.5l-1.8-0.3c0.1-0.6,0.2-1.3,0.3-1.8l1.8,0.4C451,361.3,450.8,361.8,450.7,362.5z M512.7,361.2
					c-0.3-0.5-0.7-0.9-1.1-1.4l1.5-1.1c0.4,0.5,0.8,1,1.1,1.5L512.7,361.2z M451.5,359l-1.8-0.4c0.2-0.7,0.3-1.3,0.5-1.8l1.8,0.5
					C451.8,357.7,451.6,358.3,451.5,359z M510.5,358.4c-0.4-0.4-0.8-0.9-1.2-1.3l1.4-1.2c0.4,0.5,0.8,0.9,1.2,1.4L510.5,358.4z
					 M508.1,355.8c-0.4-0.4-0.8-0.8-1.3-1.3l1.3-1.3c0.5,0.4,0.9,0.9,1.3,1.3L508.1,355.8z M452.5,355.6l-1.7-0.7
					c0.1-0.3,0.4-0.9,0.8-1.7l1.6,0.9C452.9,354.7,452.6,355.3,452.5,355.6z M505.4,353.3c-0.4-0.4-0.9-0.8-1.4-1.2l1.2-1.4
					c0.5,0.4,1,0.8,1.4,1.2L505.4,353.3z M454.1,352.5l-1.6-1c0.3-0.5,0.7-1,1-1.6l1.5,1.1C454.7,351.5,454.4,352,454.1,352.5z
					 M502.6,351c-0.5-0.4-1-0.7-1.5-1.1l1.1-1.5c0.5,0.4,1,0.7,1.5,1.1L502.6,351z M456.2,349.6l-1.4-1.2c0.4-0.5,0.8-1,1.2-1.4
					l1.4,1.2C456.9,348.7,456.5,349.1,456.2,349.6z M499.7,349c-0.5-0.3-1-0.6-1.5-1l0.9-1.6c0.5,0.3,1.1,0.7,1.6,1L499.7,349z
					 M496.6,347.1c-0.5-0.3-1-0.6-1.6-0.8l0.8-1.6c0.6,0.3,1.1,0.6,1.6,0.9L496.6,347.1z M458.6,347l-1.3-1.3
					c0.5-0.4,0.9-0.9,1.4-1.3l1.2,1.4C459.4,346.2,459,346.6,458.6,347z M493.4,345.5c-0.5-0.3-1.1-0.5-1.6-0.7l0.7-1.7
					c0.6,0.3,1.1,0.5,1.7,0.8L493.4,345.5z M461.3,344.7l-1.1-1.5c0.5-0.4,1.1-0.7,1.6-1l0.9,1.6
					C462.3,344.1,461.8,344.4,461.3,344.7z M490.1,344c-0.5-0.2-1.1-0.4-1.7-0.7l0.6-1.7c0.6,0.2,1.2,0.4,1.7,0.7L490.1,344z
					 M464.3,343l-0.8-1.7c0.6-0.3,1.2-0.5,1.7-0.8l0.7,1.7C465.4,342.5,464.8,342.7,464.3,343z M486.7,342.8c-0.3-0.1-0.7-0.2-1-0.3
					c-0.2-0.1-0.5-0.1-0.7-0.2l0.5-1.8c0.2,0.1,0.5,0.1,0.7,0.2c0.4,0.1,0.7,0.2,1.1,0.3L486.7,342.8z M483.3,341.7
					c-0.6-0.2-1.2-0.3-1.7-0.4l0.4-1.8c0.6,0.1,1.2,0.3,1.8,0.4L483.3,341.7z M467.6,341.7l-0.5-1.8c0.6-0.2,1.2-0.4,1.8-0.5
					l0.4,1.8C468.7,341.3,468.1,341.5,467.6,341.7z M479.8,341c-0.6-0.1-1.2-0.2-1.8-0.2l0.2-1.8c0.6,0.1,1.2,0.1,1.9,0.3L479.8,341
					z M471,340.9l-0.3-1.8c0.6-0.1,1.2-0.2,1.9-0.2l0.1,1.8C472.2,340.7,471.6,340.8,471,340.9z M476.3,340.6c-0.5,0-0.9,0-1.4,0
					l-0.4,0l0-1.8l0.4,0c0.5,0,1,0,1.5,0L476.3,340.6z"/>
			</g>
			<g>
				<path fill="#191919" d="M483.9,404.7c-0.3,0-0.6-0.1-0.9-0.1l0.3-1.8c0.3,0,0.6,0.1,0.9,0.1L483.9,404.7z"/>
			</g>
		</g>
	</g>
	<g>
		<g>
			<path fill="#191919" d="M473.6,383.5c-0.3-0.1-0.6-0.3-0.8-0.4l-0.8-0.4l0.4-0.8c0,0,0.1-0.3,0.4-0.8l1.7,0.7c0,0,0,0,0,0.1
				c0,0,0,0,0,0L473.6,383.5z"/>
		</g>
		<g>
			<path fill="#191919" d="M475.2,380.1l-1.7-0.7c0.2-0.5,0.4-1.1,0.6-1.7l1.7,0.6C475.6,379,475.4,379.6,475.2,380.1z M476.4,376.6
				l-1.7-0.6c0.2-0.6,0.4-1.1,0.5-1.7l1.8,0.5C476.8,375.4,476.6,376,476.4,376.6z M477.5,373l-1.8-0.5c0.2-0.6,0.3-1.2,0.4-1.8
				l1.8,0.4C477.8,371.8,477.7,372.4,477.5,373z M478.3,369.3l-1.8-0.3c0.1-0.6,0.2-1.2,0.3-1.8l1.8,0.3
				C478.6,368.1,478.5,368.7,478.3,369.3z M478.9,365.6l-1.8-0.2c0.1-0.6,0.1-1.2,0.1-1.8l1.8,0.1C479,364.3,479,364.9,478.9,365.6z
				 M477.3,361.8c0-0.6,0-1.2-0.1-1.8l1.8-0.1c0,0.6,0.1,1.3,0.1,1.9L477.3,361.8z M477,358.2c-0.1-0.6-0.2-1.2-0.4-1.7l1.8-0.5
				c0.2,0.6,0.3,1.2,0.4,1.9L477,358.2z M476.1,354.9c-0.2-0.5-0.5-1.1-0.7-1.6l1.6-0.9c0.3,0.6,0.6,1.2,0.8,1.8L476.1,354.9z
				 M474.5,351.8c-0.3-0.5-0.7-0.9-1.1-1.3l1.3-1.3c0.5,0.5,0.9,1,1.3,1.5L474.5,351.8z"/>
		</g>
		<g>
			<path fill="#191919" d="M472.1,349.5c-0.2-0.2-0.5-0.3-0.7-0.5l-2.5-1.6l3-0.1c0,0,0.4,0,1,0l0,0.4c0.1,0.1,0.2,0.2,0.4,0.3
				l-0.4,0.6l0,0.6c-0.2,0-0.3,0-0.4,0L472.1,349.5z"/>
		</g>
		<g>
			<path fill="#191919" d="M483,386.1l0-1.8c0.6,0,1.2-0.1,1.7-0.2l0.3,1.8C484.4,386,483.7,386.1,483,386.1z M481,386
				c-0.6-0.1-1.3-0.2-1.9-0.3l0.4-1.8c0.6,0.1,1.2,0.2,1.7,0.3L481,386z M487,385.3l-0.7-1.7c0.5-0.2,1-0.5,1.5-0.8l1,1.6
				C488.2,384.8,487.6,385.1,487,385.3z M477.2,385.1c-0.6-0.2-1.2-0.4-1.8-0.7l0.7-1.7c0.6,0.2,1.1,0.5,1.7,0.7L477.2,385.1z
				 M490.5,383.2l-1.2-1.4c0.4-0.4,0.8-0.8,1.2-1.2l1.4,1.2C491.4,382.3,490.9,382.8,490.5,383.2z M493.1,380.2l-1.5-1
				c0.3-0.5,0.6-1,0.9-1.5l1.6,0.8C493.7,379.1,493.4,379.6,493.1,380.2z M494.9,376.7l-1.7-0.7c0.2-0.6,0.4-1.1,0.6-1.7l1.8,0.5
				C495.3,375.5,495.1,376.1,494.9,376.7z M496,372.8l-1.8,0c0-0.3,0-0.5,0-0.8c0-0.3,0-0.7,0-1l1.8-0.1c0,0.4,0,0.7,0,1.1
				C496,372.2,496,372.5,496,372.8z M494.1,369.1c-0.1-0.6-0.1-1.2-0.2-1.8l1.8-0.3c0.1,0.6,0.2,1.3,0.2,1.9L494.1,369.1z
				 M493.6,365.5c-0.1-0.6-0.3-1.2-0.4-1.7l1.8-0.5c0.2,0.6,0.3,1.2,0.5,1.9L493.6,365.5z M492.6,362.1c-0.2-0.6-0.5-1.1-0.7-1.6
				l1.7-0.8c0.3,0.6,0.5,1.2,0.8,1.8L492.6,362.1z M491,358.8c-0.3-0.5-0.6-1-1-1.5l1.5-1.1c0.4,0.5,0.8,1.1,1.1,1.6L491,358.8z
				 M488.9,356c-0.4-0.4-0.8-0.9-1.3-1.3l1.2-1.4c0.5,0.4,1,0.9,1.4,1.4L488.9,356z M486.2,353.6c-0.5-0.3-1-0.7-1.5-1l1-1.6
				c0.6,0.3,1.1,0.7,1.6,1.1L486.2,353.6z M483.2,351.7c-0.5-0.3-1.1-0.5-1.6-0.7l0.7-1.7c0.6,0.2,1.2,0.5,1.8,0.8L483.2,351.7z
				 M479.8,350.4c-0.6-0.2-1.2-0.3-1.7-0.5l0.4-1.8c0.6,0.2,1.3,0.3,1.9,0.5L479.8,350.4z M476.3,349.5c-0.7-0.1-1.3-0.2-1.8-0.3
				l0.2-1.8c0.6,0.1,1.3,0.2,1.9,0.3L476.3,349.5z"/>
		</g>
	</g>
	<g>
		<g>
			<path fill="#FFFDFA" d="M506.5,352.2c0,0,27.5-16.9,33.3-33.3c5.8-16.4-2.2-34.3-2.2-34.3s-6.6-8-16.9-10.6s-17.5,6.2-24.7,42.1
				c0,0-1,3,3,6.8"/>
		</g>
		<g>
			<g>
				<path fill="#191919" d="M507,353l-1-1.6c0,0,0.3-0.2,0.8-0.5l1,1.6C507.3,352.8,507,353,507,353z"/>
			</g>
			<g>
				<path fill="#191919" d="M509.3,351.5l-1-1.5c0.4-0.3,1-0.6,1.5-1l1,1.5C510.3,350.8,509.8,351.2,509.3,351.5z M512.4,349.4
					l-1.1-1.5c0.5-0.3,1-0.7,1.5-1.1l1.1,1.5C513.3,348.7,512.8,349.1,512.4,349.4z M515.4,347.3l-1.1-1.5c0.5-0.3,1-0.7,1.5-1.1
					l1.1,1.5C516.3,346.5,515.8,346.9,515.4,347.3z M518.3,345l-1.1-1.5c0.5-0.4,0.9-0.7,1.4-1.1l1.1,1.4
					C519.3,344.3,518.8,344.7,518.3,345z M521.2,342.7l-1.2-1.4c0.5-0.4,0.9-0.8,1.4-1.2l1.2,1.4C522.1,342,521.7,342.4,521.2,342.7
					z M524,340.4l-1.2-1.4c0.5-0.4,0.9-0.8,1.4-1.2l1.2,1.4C524.9,339.6,524.5,340,524,340.4z M526.7,337.9l-1.3-1.3
					c0.4-0.4,0.9-0.8,1.3-1.2l1.3,1.3C527.6,337.1,527.2,337.5,526.7,337.9z M529.4,335.3l-1.3-1.3c0.4-0.4,0.8-0.9,1.3-1.3l1.3,1.3
					C530.3,334.5,529.8,334.9,529.4,335.3z M532,332.7l-1.4-1.2c0.4-0.4,0.8-0.9,1.2-1.4l1.4,1.2C532.8,331.7,532.4,332.2,532,332.7
					z M534.4,329.8l-1.4-1.2c0.4-0.5,0.7-0.9,1.1-1.4l1.5,1.1C535.2,328.9,534.8,329.4,534.4,329.8z M536.6,326.9l-1.5-1.1
					c0.3-0.5,0.7-1,1-1.5l1.6,1C537.3,325.8,537,326.4,536.6,326.9z M538.6,323.7l-1.6-0.9c0.3-0.5,0.6-1,0.8-1.6l1.7,0.8
					C539.2,322.6,538.9,323.2,538.6,323.7z M496.5,321.3c-0.4-0.6-0.7-1.2-1-1.8l1.7-0.7c0.2,0.5,0.4,1,0.8,1.4L496.5,321.3z
					 M540.3,320.3l-1.7-0.7c0.1-0.3,0.3-0.7,0.4-1c0.1-0.2,0.1-0.4,0.2-0.6l1.7,0.6c-0.1,0.2-0.1,0.4-0.2,0.7
					C540.6,319.6,540.4,320,540.3,320.3z M495.1,317.5c0-0.2,0-0.4,0-0.5c0-0.6,0.1-1,0.1-1.1l0.1-0.4l1.8,0.4l-0.1,0.6l0,0
					c0,0-0.1,0.2-0.1,0.6c0,0.1,0,0.2,0,0.4L495.1,317.5z M541.5,316.8l-1.8-0.5c0.2-0.6,0.3-1.2,0.4-1.7l1.8,0.4
					C541.8,315.5,541.6,316.1,541.5,316.8z M497.5,314l-1.8-0.4c0.1-0.6,0.3-1.2,0.4-1.8l1.8,0.4C497.7,312.8,497.6,313.4,497.5,314
					z M542.3,313.1l-1.8-0.3c0.1-0.6,0.2-1.2,0.3-1.8l1.8,0.2C542.5,311.9,542.4,312.5,542.3,313.1z M498.2,310.5l-1.8-0.4
					c0.1-0.6,0.3-1.2,0.4-1.8l1.8,0.4C498.5,309.3,498.4,309.9,498.2,310.5z M542.7,309.4l-1.8-0.1c0-0.6,0.1-1.2,0.1-1.8l1.8,0.1
					C542.8,308.1,542.8,308.8,542.7,309.4z M499,306.9l-1.8-0.4c0.1-0.6,0.3-1.2,0.4-1.8l1.8,0.4C499.3,305.7,499.2,306.3,499,306.9
					z M541,305.7c0-0.6,0-1.2,0-1.8l1.8-0.1c0,0.6,0,1.2,0,1.9L541,305.7z M499.9,303.4l-1.8-0.4c0.2-0.6,0.3-1.2,0.5-1.8l1.8,0.5
					C500.2,302.2,500,302.8,499.9,303.4z M540.9,302.1c0-0.6-0.1-1.2-0.2-1.8l1.8-0.2c0.1,0.6,0.1,1.2,0.2,1.9L540.9,302.1z
					 M500.8,299.9l-1.8-0.5c0.2-0.6,0.3-1.2,0.5-1.8l1.8,0.5C501.1,298.7,501,299.3,500.8,299.9z M540.5,298.5
					c-0.1-0.6-0.2-1.2-0.3-1.8l1.8-0.3c0.1,0.6,0.2,1.2,0.3,1.8L540.5,298.5z M501.8,296.4l-1.8-0.5c0.2-0.6,0.4-1.2,0.5-1.8
					l1.8,0.6C502.2,295.2,502,295.8,501.8,296.4z M539.8,295c-0.1-0.6-0.3-1.2-0.4-1.8l1.8-0.4c0.1,0.6,0.3,1.2,0.4,1.8L539.8,295z
					 M502.9,292.9l-1.7-0.6c0.2-0.6,0.4-1.2,0.6-1.7l1.7,0.6C503.3,291.7,503.1,292.3,502.9,292.9z M539,291.5
					c-0.2-0.6-0.3-1.2-0.5-1.7l1.8-0.5c0.2,0.6,0.3,1.2,0.5,1.8L539,291.5z M504.1,289.5l-1.7-0.6c0.2-0.6,0.4-1.2,0.7-1.7l1.7,0.7
					C504.5,288.4,504.3,288.9,504.1,289.5z M537.9,288c-0.2-0.7-0.4-1.2-0.6-1.7l1.7-0.7c0.2,0.5,0.4,1.1,0.6,1.8L537.9,288z
					 M505.4,286.2l-1.7-0.7c0.3-0.6,0.5-1.1,0.8-1.7l1.7,0.8C505.9,285,505.7,285.6,505.4,286.2z M536.7,285
					c-0.2-0.3-0.6-0.7-1.2-1.3l1.3-1.3c0.6,0.6,1,1.1,1.3,1.4L536.7,285z M507,282.9l-1.6-0.9c0.3-0.6,0.6-1.1,0.9-1.6l1.6,1
					C507.6,281.9,507.3,282.4,507,282.9z M534.2,282.4c-0.4-0.4-0.9-0.8-1.4-1.2l1.2-1.4c0.5,0.4,1,0.8,1.4,1.2L534.2,282.4z
					 M531.4,280.2c-0.5-0.3-0.9-0.7-1.5-1l1-1.5c0.5,0.4,1,0.7,1.5,1.1L531.4,280.2z M508.9,279.9l-1.5-1.1c0.4-0.5,0.8-1,1.2-1.5
					l1.4,1.2C509.6,279,509.2,279.4,508.9,279.9z M528.5,278.2c-0.5-0.3-1-0.6-1.6-0.9l0.9-1.6c0.6,0.3,1.1,0.6,1.6,0.9L528.5,278.2
					z M511.1,277.3l-1.3-1.3c0.5-0.5,1-0.9,1.5-1.3l1.1,1.5C512,276.5,511.5,276.9,511.1,277.3z M525.3,276.6
					c-0.5-0.2-1.1-0.5-1.6-0.7l0.7-1.7c0.6,0.2,1.2,0.5,1.7,0.7L525.3,276.6z M513.8,275.3l-0.8-1.7c0.6-0.3,1.2-0.5,1.9-0.7
					l0.5,1.8C514.8,274.9,514.3,275.1,513.8,275.3z M522,275.3c-0.5-0.2-1-0.3-1.5-0.4l-0.2-0.1l0.4-1.8l0.2,0.1
					c0.5,0.1,1.1,0.3,1.6,0.5L522,275.3z M518.6,274.5c-0.6-0.1-1.1-0.1-1.7,0l-0.1-1.8c0.6,0,1.3,0,2,0L518.6,274.5z"/>
			</g>
			<g>
				<path fill="#191919" d="M498.5,323.6c-0.2-0.2-0.5-0.5-0.7-0.7l1.3-1.3c0.2,0.2,0.4,0.4,0.6,0.6L498.5,323.6z"/>
			</g>
		</g>
	</g>
	<g>
		<g>
			<path fill="#191919" d="M540.7,319.2l-1.8-0.5c-0.1,0.2,0,0.3,0,0.3c0,0,0-0.1-0.2-0.3l1.5-1.1
				C540.7,318.2,540.8,318.7,540.7,319.2z"/>
		</g>
		<g>
			<path fill="#191919" d="M537.8,317.6c-0.3-0.3-0.7-0.6-1.1-0.9l1.1-1.5c0.5,0.4,0.9,0.7,1.2,1L537.8,317.6z M535.5,315.8
				c-0.4-0.3-0.8-0.5-1.3-0.8l1-1.5c0.5,0.3,0.9,0.6,1.3,0.9L535.5,315.8z"/>
		</g>
		<g>
			<path fill="#191919" d="M532.9,314.1c-0.2-0.2-0.5-0.3-0.8-0.5l-1-0.6l0.8-0.8c0,0,0.2-0.2,0.5-0.6l0.6,0.5
				c0.3,0.2,0.5,0.3,0.8,0.5l-0.1,0.1l0.1,0.1c-0.3,0.3-0.5,0.6-0.6,0.7L532.9,314.1z"/>
		</g>
		<g>
			<path fill="#191919" d="M535.1,311.2l-1.5-1c0.3-0.5,0.7-1,1-1.5l1.6,0.9C535.8,310.1,535.5,310.6,535.1,311.2z M537.1,307.8
				l-1.6-0.8c0.3-0.5,0.5-1.1,0.8-1.7l1.7,0.7C537.6,306.6,537.4,307.2,537.1,307.8z M538.6,304.2l-1.8-0.6c0.2-0.6,0.4-1.2,0.5-1.7
				l1.8,0.4C538.9,302.9,538.8,303.6,538.6,304.2z M539.5,300.3l-1.8-0.3c0.1-0.6,0.1-1.2,0.2-1.8l1.8,0.1
				C539.6,299,539.6,299.7,539.5,300.3z M537.8,296.5c0-0.6-0.1-1.2-0.2-1.8l1.8-0.3c0.1,0.7,0.2,1.3,0.2,2L537.8,296.5z
				 M537.3,292.9c-0.1-0.6-0.3-1.2-0.5-1.7l1.7-0.6c0.2,0.6,0.4,1.3,0.6,1.9L537.3,292.9z M536.2,289.5c-0.2-0.5-0.5-1.1-0.8-1.6
				l1.6-0.9c0.3,0.6,0.6,1.2,0.9,1.8L536.2,289.5z M534.4,286.3c-0.3-0.5-0.7-1-1-1.5l1.5-1.1c0.4,0.5,0.8,1.1,1.1,1.6L534.4,286.3z
				 M532.2,283.4c-0.4-0.5-0.8-0.9-1.2-1.4l1.3-1.3c0.5,0.5,0.9,1,1.3,1.4L532.2,283.4z M529.7,280.7c-0.4-0.4-0.9-0.8-1.4-1.2
				l1.2-1.4c0.5,0.4,1,0.9,1.4,1.3L529.7,280.7z M526.9,278.3c-0.5-0.4-1-0.7-1.5-1.1l1.1-1.5c0.5,0.4,1,0.8,1.5,1.2L526.9,278.3z"
				/>
		</g>
		<g>
			<path fill="#191919" d="M523.8,276.1c-0.2-0.2-0.5-0.3-0.8-0.5l1-1.5c0.3,0.2,0.5,0.3,0.8,0.5L523.8,276.1z"/>
		</g>
	</g>
	<g>
		<g>
			<path fill="#191919" d="M543,229.1C542.9,229.1,542.9,229.1,543,229.1l0-1.8c0,0,0.3,0,0.9,0l0.1,1.8
				C543.4,229.1,543.1,229.1,543,229.1z"/>
		</g>
		<g>
			<path fill="#191919" d="M545.7,229l-0.1-1.8c0.5,0,1.1-0.1,1.8-0.2l0.2,1.8C546.9,228.9,546.3,228.9,545.7,229z M549.4,228.6
				l-0.2-1.8c0.6-0.1,1.2-0.2,1.8-0.3l0.3,1.8C550.6,228.4,550,228.5,549.4,228.6z M553,228l-0.3-1.8c0.6-0.1,1.2-0.2,1.8-0.3
				l0.4,1.8C554.2,227.8,553.6,227.9,553,228z M556.6,227.3l-0.4-1.8c0.6-0.1,1.2-0.3,1.7-0.4l0.5,1.8
				C557.8,227,557.2,227.1,556.6,227.3z M560.2,226.3l-0.5-1.8c0.6-0.2,1.1-0.3,1.7-0.5l0.6,1.8C561.4,226,560.8,226.2,560.2,226.3z
				 M563.7,225.2l-0.6-1.7c0.6-0.2,1.1-0.4,1.7-0.6l0.7,1.7C564.9,224.8,564.3,225,563.7,225.2z M567.2,223.9l-0.7-1.7
				c0.5-0.2,1.1-0.5,1.6-0.7l0.8,1.7C568.3,223.4,567.7,223.6,567.2,223.9z M570.5,222.3l-0.8-1.6c0.5-0.3,1.1-0.5,1.6-0.8l0.9,1.6
				C571.6,221.8,571.1,222,570.5,222.3z M573.8,220.6l-0.9-1.6c0.5-0.3,1-0.6,1.5-0.9l1,1.6C574.8,219.9,574.3,220.2,573.8,220.6z
				 M576.9,218.6l-1-1.5c0.5-0.3,1-0.7,1.5-1l1.1,1.5C577.9,217.9,577.4,218.2,576.9,218.6z M579.9,216.4l-1.2-1.4
				c0.5-0.4,0.9-0.8,1.4-1.1l1.2,1.4C580.8,215.6,580.3,216,579.9,216.4z M582.7,213.9l-1.3-1.3c0.2-0.2,0.4-0.4,0.6-0.5l0.1-0.1
				c0,0,0.3-0.2,0.7-0.6l1.3,1.3c-0.4,0.4-0.7,0.6-0.8,0.7C583,213.6,582.8,213.7,582.7,213.9z M585.3,211.3l-1.4-1.2
				c0.4-0.4,0.8-0.9,1.1-1.4l1.5,1.1C586.1,210.3,585.7,210.8,585.3,211.3z M587.6,208.3l-1.6-1c0.3-0.5,0.6-1,0.9-1.5l1.6,0.8
				C588.2,207.2,587.9,207.7,587.6,208.3z M589.3,204.9l-1.7-0.7c0.2-0.5,0.4-1.1,0.6-1.6l1.8,0.5
				C589.7,203.7,589.5,204.3,589.3,204.9z M590.4,201.2l-1.8-0.3c0.1-0.6,0.2-1.1,0.2-1.7l1.8,0.1
				C590.6,199.9,590.5,200.6,590.4,201.2z M588.8,197.4c0-0.6-0.1-1.1-0.1-1.7l1.8-0.2c0.1,0.6,0.1,1.3,0.1,1.9L588.8,197.4z
				 M588.4,194c-0.1-0.6-0.3-1.1-0.4-1.7l1.8-0.6c0.2,0.6,0.4,1.2,0.5,1.8L588.4,194z M587.4,190.7c-0.2-0.5-0.5-1.1-0.7-1.6
				l1.7-0.8c0.3,0.6,0.5,1.2,0.8,1.7L587.4,190.7z M585.8,187.7c-0.2-0.3-0.6-0.7-1.2-1.3l1.3-1.3c0.6,0.6,1,1.1,1.3,1.4
				L585.8,187.7z M583.4,185.2c-0.4-0.4-0.8-0.8-1.3-1.2l1.2-1.4c0.5,0.4,1,0.8,1.4,1.2L583.4,185.2z M580.7,183
				c-0.5-0.3-1-0.7-1.5-1l0.9-1.6c0.5,0.3,1.1,0.7,1.6,1L580.7,183z M577.7,181.2c-0.5-0.3-1.1-0.5-1.6-0.7l0.7-1.7
				c0.6,0.2,1.2,0.5,1.7,0.8L577.7,181.2z M574.5,179.9c-0.6-0.2-1.1-0.3-1.7-0.4l0.3-1.8c0.6,0.1,1.2,0.3,1.9,0.4L574.5,179.9z"/>
		</g>
		<g>
			<path fill="#191919" d="M571.1,179.3c-0.3,0-0.6,0-0.9,0l0-1.8c0.3,0,0.7,0,1,0L571.1,179.3z"/>
		</g>
	</g>
	<g>
		<g>
			
				<rect x="307.4" y="236.5" transform="matrix(0.1323 0.9912 -0.9912 0.1323 502.428 -99.973)" fill="#191919" width="1.8" height="0.9"/>
		</g>
		<g>
			<path fill="#191919" d="M310.8,237.6l-0.2-1.8l1.9-0.3l0.2,1.8L310.8,237.6z M314.6,237.1l-0.2-1.8l1.9-0.3l0.2,1.8L314.6,237.1z
				 M318.4,236.6l-0.2-1.8l1.9-0.3l0.2,1.8L318.4,236.6z M322.1,236.1l-0.2-1.8l1.9-0.3l0.2,1.8L322.1,236.1z M325.9,235.6l-0.2-1.8
				l1.9-0.3l0.2,1.8L325.9,235.6z M329.7,235.1l-0.2-1.8l1.9-0.3l0.2,1.8L329.7,235.1z"/>
		</g>
		<g>
			
				<rect x="332.9" y="233.1" transform="matrix(0.1323 0.9912 -0.9912 0.1323 521.1851 -128.2003)" fill="#191919" width="1.8" height="0.9"/>
		</g>
	</g>
	<g>
		<g>
			<path fill="#191919" d="M272.8,280.1l-1.5-1.1c0,0,0.2-0.3,0.5-0.7l1.5,1.1C273,279.8,272.8,280.1,272.8,280.1z"/>
		</g>
		<g>
			<path fill="#191919" d="M274.5,277.8l-1.5-1.1c0.3-0.5,0.7-1,1.1-1.5l1.5,1.1C275.2,276.8,274.8,277.4,274.5,277.8z M276.7,274.7
				l-1.5-1c0.3-0.5,0.7-1,1.1-1.6l1.5,1C277.4,273.7,277,274.2,276.7,274.7z M278.8,271.5l-1.5-1c0.3-0.5,0.7-1,1-1.6l1.6,1
				C279.5,270.5,279.1,271,278.8,271.5z M280.8,268.3l-1.6-0.9c0.3-0.5,0.6-1.1,0.9-1.6l1.6,0.9
				C281.5,267.2,281.1,267.8,280.8,268.3z M282.7,265l-1.6-0.9c0.3-0.6,0.6-1.1,0.9-1.6l1.6,0.8C283.3,263.9,283,264.4,282.7,265z
				 M284.4,261.6l-1.7-0.8c0.3-0.6,0.5-1.1,0.7-1.7l1.7,0.7C285,260.4,284.7,261,284.4,261.6z M285.9,258l-1.7-0.6
				c0.2-0.6,0.4-1.2,0.5-1.7l1.8,0.4C286.3,256.7,286.1,257.3,285.9,258z"/>
		</g>
		<g>
			<path fill="#191919" d="M286.7,254.1l-1.8-0.1c0-0.3,0-0.5,0-0.8l0-0.6l0.5-0.3c0,0,0.3-0.2,0.8-0.4l0.9,1.6
				c-0.1,0.1-0.2,0.1-0.3,0.2C286.7,253.8,286.7,253.9,286.7,254.1z"/>
		</g>
		<g>
			<path fill="#191919" d="M288.6,252.5l-0.9-1.6c0.5-0.3,1-0.6,1.6-1l0.9,1.6C289.7,251.9,289.1,252.2,288.6,252.5z M291.9,250.6
				l-1-1.6c0.5-0.3,1-0.6,1.6-1l1,1.6C292.9,249.9,292.4,250.3,291.9,250.6z M295.1,248.6l-1-1.5c0.5-0.3,1-0.7,1.6-1l1,1.5
				C296.1,247.9,295.6,248.2,295.1,248.6z M298.2,246.5l-1-1.5c0.5-0.4,1-0.7,1.5-1.1l1.1,1.5C299.3,245.7,298.8,246.1,298.2,246.5z
				 M301.3,244.2l-1.2-1.4c0.5-0.4,1-0.8,1.4-1.2l1.3,1.3C302.4,243.3,301.9,243.8,301.3,244.2z M304.1,241.4l-1.5-1.1
				c0.3-0.4,0.8-0.9,1.3-1.5l1.4,1.2C304.8,240.6,304.4,241,304.1,241.4z M306.6,238.8l-1.3-1.3c0.4-0.4,0.9-0.9,1.4-1.3l1.3,1.3
				C307.4,237.9,307,238.3,306.6,238.8z M309.3,236.2l-1.2-1.4c0.5-0.4,0.9-0.8,1.4-1.2l1.2,1.4
				C310.2,235.4,309.7,235.8,309.3,236.2z M312.1,233.8l-1.2-1.4c0.5-0.4,1-0.8,1.5-1.2l1.2,1.4C313.1,233,312.6,233.4,312.1,233.8z
				 M315,231.5l-1.1-1.5c0.5-0.4,1-0.8,1.5-1.1l1.1,1.5C316,230.7,315.5,231.1,315,231.5z M318,229.3l-1-1.5
				c0.1-0.1,0.3-0.2,0.4-0.3c0.4-0.2,0.8-0.5,1.2-0.7l0.9,1.6c-0.4,0.2-0.8,0.5-1.2,0.7C318.2,229.1,318.1,229.2,318,229.3z
				 M321.1,227.4l-0.9-1.6c0.5-0.3,1.1-0.6,1.6-0.9l0.9,1.6C322.2,226.8,321.6,227.1,321.1,227.4z M324.4,225.5l-1-1.6
				c0.5-0.3,1-0.7,1.5-1l1.1,1.5C325.5,224.8,324.9,225.2,324.4,225.5z M327.5,223.3l-1.2-1.4c0.5-0.4,0.9-0.8,1.4-1.2l1.2,1.4
				C328.5,222.4,328,222.8,327.5,223.3z M330.4,220.6l-1.3-1.3c0.4-0.4,0.8-0.9,1.2-1.4l1.4,1.1
				C331.3,219.7,330.8,220.1,330.4,220.6z"/>
		</g>
		<g>
			<path fill="#191919" d="M332.8,217.7c-0.4-0.3-0.7-0.5-0.8-0.6l-0.7-0.5c0.2-0.2,0.3-0.5,0.5-0.7l0.7-1.1l0.8,1c0,0,0,0,0,0
				c0,0,0.2,0.2,0.5,0.4l-0.4,0.7l0,0c-0.1,0.2-0.2,0.3-0.3,0.5L332.8,217.7z"/>
		</g>
		<g>
			<path fill="#191919" d="M336.3,218.6c-0.6,0-1.1-0.1-1.7-0.2l0.4-1.8c0.4,0.1,0.8,0.1,1.3,0.1l0.2,0l0,1.8L336.3,218.6z
				 M338.3,218.3l-0.4-1.8c0.5-0.1,1-0.2,1.5-0.4l0.6,1.7C339.5,218.1,338.9,218.2,338.3,218.3z M341.7,217.2l-0.8-1.7
				c0.5-0.2,0.9-0.5,1.4-0.7l0.9,1.6C342.7,216.7,342.2,216.9,341.7,217.2z"/>
		</g>
		<g>
			<path fill="#191919" d="M344.8,215.4l-1-1.5c0.2-0.2,0.5-0.3,0.7-0.5l1.1,1.5C345.3,215.1,345,215.3,344.8,215.4z"/>
		</g>
	</g>
	<g>
		<path fill="#191919" d="M368.9,482.8c-3.1,0-6.4-0.5-9.8-1.6c-23-7.4-116.1-39-117-39.3l-0.1,0c-0.3-0.2-8.3-3.9-11.3-12.2
			c-1.8-5.2-1.3-10.9,1.7-17l194.1-346c0.5-1.1,8.2-17.5,28.7-17.5c2.5,0,5.2,0.3,8,0.8c26.5,4.9,119.1,26.9,120.1,27.1
			c0.4,0.1,7,2.3,9.6,9.1c2.2,5.6,1,12.6-3.6,20.7c-12.6,22.3-193.6,356.6-195.4,360C393.8,466.9,385.9,482.8,368.9,482.8z
			 M242.8,440.1c2.7,0.9,94.1,32,116.9,39.3c3.2,1,6.3,1.5,9.3,1.5c15.8,0,23.2-14.8,23.3-15c1.8-3.4,182.9-337.7,195.5-360.1
			c4.3-7.6,5.4-14,3.5-19.1c-2.3-6-8.4-8-8.4-8c-0.9-0.2-93.5-22.2-119.9-27.1c-2.6-0.5-5.2-0.7-7.6-0.7c-19.8,0-26.7,15.8-27,16.4
			l0,0.1L234,413.4c-2.7,5.6-3.2,10.8-1.6,15.5C235.1,436.2,242.2,439.8,242.8,440.1z"/>
	</g>
	<g>
		<path fill="#CECECE" d="M402.8,430.1l-143.5-46.5l0.3-0.5L418.9,96.9l144.5,34.3l-0.3,0.5L402.8,430.1z M260.6,383.1L402.3,429
			L562,131.8L419.3,97.9L260.6,383.1z"/>
	</g>
	<g>
		<path fill="#191919" d="M313.6,449.6c-1.9,0-3.8-0.4-5.4-1.3c-3.4-1.8-5.6-5.2-6.4-9.5c-0.7-4.2,0.1-8.9,2.4-13.1
			c3.4-6.5,9.5-10.7,15.5-10.7c1.9,0,3.8,0.4,5.4,1.3c3.4,1.8,5.6,5.2,6.4,9.5c0.7,4.2-0.1,8.9-2.4,13.1
			C325.7,445.4,319.6,449.6,313.6,449.6z M319.6,416.7c-5.3,0-10.8,3.8-13.9,9.7c-2.1,3.9-2.8,8.1-2.2,12c0.6,3.7,2.6,6.6,5.4,8.2
			c1.4,0.7,2.9,1.1,4.6,1.1c5.3,0,10.8-3.8,13.9-9.7c2.1-3.9,2.8-8.1,2.2-12c-0.6-3.7-2.6-6.6-5.4-8.2
			C322.8,417.1,321.3,416.7,319.6,416.7z"/>
	</g>
	<g>
		<g>
			<path fill="#FFFFFF" d="M45.2,670l21.1-21.3c0,0,26.4-27.5,30.5-31.1c4.2-3.6,26.6-23.9,35.2-29.4c8.6-5.5,10.8-8.9,32.7-17.5
				s44.9-15,44.9-15l27.5-2.8c0,0,88.2-21.1,104-28.8c0,0,7.8-3.6,8.3-4.4c0.6-0.8,11.4,0,18.9-5c0,0,29.1-7.5,47.4-10.3
				s53.8-13,53.8-13s13.9-4.2,15.8-21.1c1.9-16.9-1.1-41.6-1.1-41.6s-20.3-25.8-51.4-33c0,0-9.7-1.7-16.3,11.9
				c-6.7,13.6,1.7,30.8,1.7,30.8s10,16.4,18.9,21.1l16.6,8.6"/>
		</g>
		<g>
			<g>
				
					<rect x="44.6" y="669.2" transform="matrix(0.71 0.7042 -0.7042 0.71 484.7494 162.1524)" fill="#191919" width="1.8" height="0.9"/>
			</g>
			<g>
				<path fill="#191919" d="M47.8,668.7l-1.3-1.3l1.3-1.3l1.3,1.3L47.8,668.7z M50.3,666.1l-1.3-1.3l1.3-1.3l1.3,1.3L50.3,666.1z
					 M52.9,663.5l-1.3-1.3l1.3-1.3l1.3,1.3L52.9,663.5z M55.5,660.9l-1.3-1.3l1.3-1.3l1.3,1.3L55.5,660.9z M58.1,658.3l-1.3-1.3
					l1.3-1.3l1.3,1.3L58.1,658.3z M60.7,655.7l-1.3-1.3l1.3-1.3l1.3,1.3L60.7,655.7z M63.3,653l-1.3-1.3l1.3-1.3l1.3,1.3L63.3,653z
					 M65.9,650.4l-1.3-1.3l1.3-1.3l1.3,1.3L65.9,650.4z M68.4,647.8l-1.3-1.3l1.3-1.3l1.3,1.3L68.4,647.8z M71,645.1l-1.3-1.3
					l1.3-1.3l1.3,1.3L71,645.1z M73.5,642.5l-1.3-1.3l1.3-1.3l1.3,1.3L73.5,642.5z M76.1,639.8l-1.3-1.3l1.3-1.3l1.3,1.3L76.1,639.8
					z M78.7,637.2l-1.3-1.3l1.3-1.3l1.3,1.3L78.7,637.2z M81.2,634.6l-1.3-1.3l1.3-1.3l1.3,1.3L81.2,634.6z M83.8,631.9l-0.7-0.6
					l-0.6-0.7l1.2-1.3l1.3,1.3L83.8,631.9z M86.4,629.3L85,628l1.3-1.3l1.3,1.3L86.4,629.3z M88.9,626.7l-1.3-1.3l1.3-1.3l1.3,1.3
					L88.9,626.7z M91.5,624.1l-1.3-1.3l1.3-1.3l1.3,1.3L91.5,624.1z M94.1,621.5l-1.3-1.3c0.5-0.5,0.9-0.9,1.3-1.3l1.3,1.3
					C95,620.6,94.6,621,94.1,621.5z M96.8,618.9l-1.3-1.3c0.3-0.2,0.5-0.4,0.7-0.6l0.7-0.7l1.2,1.4l-0.8,0.7
					C97.2,618.5,97,618.7,96.8,618.9z M99.5,616.5l-1.2-1.4l1.4-1.2l1.2,1.4L99.5,616.5z M102.3,614.1l-1.2-1.4l1.4-1.2l1.2,1.4
					L102.3,614.1z M105,611.6l-1.2-1.4l1.4-1.2l1.2,1.4L105,611.6z M107.8,609.2l-1.2-1.4l1.4-1.2l1.2,1.4L107.8,609.2z
					 M110.5,606.8l-1.2-1.4l1.4-1.2l1.2,1.4L110.5,606.8z M113.3,604.4l-1.2-1.4l1.4-1.2l1.2,1.4L113.3,604.4z M116.1,602l-1.2-1.4
					l1.4-1.2l1.2,1.4L116.1,602z M118.9,599.6l-1.2-1.4l1.4-1.2l1.2,1.4L118.9,599.6z M121.7,597.3l-1.2-1.4c0.5-0.4,1-0.8,1.4-1.2
					l1.2,1.4C122.7,596.5,122.2,596.9,121.7,597.3z M124.6,595l-1.2-1.4c0.5-0.4,1-0.8,1.4-1.2l1.1,1.4
					C125.5,594.2,125.1,594.6,124.6,595z M127.4,592.7l-1.1-1.5c0.5-0.4,1-0.8,1.5-1.1l1.1,1.5C128.4,591.9,127.9,592.3,127.4,592.7
					z M130.4,590.5l-1.1-1.5c0.5-0.4,1.1-0.8,1.5-1.1l1,1.5C131.4,589.8,130.9,590.1,130.4,590.5z M133.4,588.5l-1-1.5
					c0.5-0.3,1-0.7,1.5-1l1,1.5C134.4,587.8,133.9,588.1,133.4,588.5z M136.4,586.4l-1.1-1.5l1.5-1l1.1,1.5L136.4,586.4z
					 M139.4,584.3l-1-1.5c0.5-0.3,1-0.7,1.5-1l1,1.5C140.4,583.6,139.9,584,139.4,584.3z M142.4,582.3l-1-1.6c0.5-0.3,1-0.6,1.6-1
					l0.9,1.6C143.5,581.7,142.9,582,142.4,582.3z M145.6,580.5l-0.9-1.6c0.5-0.3,1.1-0.6,1.6-0.9l0.9,1.6
					C146.6,579.9,146.1,580.2,145.6,580.5z M148.8,578.8l-0.8-1.6c0.5-0.3,1.1-0.5,1.7-0.8l0.8,1.7
					C149.8,578.2,149.3,578.5,148.8,578.8z M152,577.2l-0.8-1.7c0.5-0.3,1.1-0.5,1.7-0.8l0.8,1.7C153.1,576.7,152.6,576.9,152,577.2
					z M155.4,575.7l-0.7-1.7c0.5-0.2,1.1-0.5,1.7-0.7l0.7,1.7C156.5,575.2,155.9,575.4,155.4,575.7z M158.7,574.2l-0.7-1.7
					c0.6-0.2,1.1-0.5,1.7-0.7l0.7,1.7C159.8,573.8,159.3,574,158.7,574.2z M162.1,572.8l-0.7-1.7c0.6-0.2,1.1-0.5,1.7-0.7l0.7,1.7
					C163.2,572.4,162.6,572.6,162.1,572.8z M165.5,571.5l-0.7-1.7c0.6-0.2,1.1-0.4,1.7-0.7l0.7,1.7
					C166.6,571,166.1,571.3,165.5,571.5z M168.9,570.2l-0.7-1.7l1.7-0.6l0.6,1.7L168.9,570.2z M172.3,568.9l-0.6-1.7l1.7-0.6
					l0.6,1.7L172.3,568.9z M175.8,567.6l-0.6-1.7l1.7-0.6l0.6,1.7L175.8,567.6z M179.2,566.4l-0.6-1.7l1.7-0.6l0.6,1.7L179.2,566.4z
					 M182.7,565.2l-0.6-1.7l1.7-0.6l0.6,1.7L182.7,565.2z M186.2,564l-0.6-1.7l1.7-0.6l0.6,1.7L186.2,564z M189.7,562.9l-0.6-1.7
					l1.7-0.6l0.6,1.8L189.7,562.9z M193.2,561.8l-0.6-1.8l1.8-0.6l0.6,1.8L193.2,561.8z M196.7,560.7l-0.5-1.8l1.8-0.5l0.5,1.8
					L196.7,560.7z M200.2,559.6l-0.5-1.8l1.8-0.5l0.5,1.8L200.2,559.6z M203.7,558.5l-0.5-1.8l1.8-0.5l0.5,1.8L203.7,558.5z
					 M207.2,557.5l-0.5-1.8c0.7-0.2,1.3-0.4,1.8-0.5l0.5,1.8C208.5,557.1,207.9,557.3,207.2,557.5z M210.6,556.6l-0.2-1.8l1.8-0.2
					l0.2,1.8L210.6,556.6z M214.3,556.3l-0.2-1.8l1.8-0.2l0.2,1.8L214.3,556.3z M217.9,555.9l-0.2-1.8l1.8-0.2l0.2,1.8L217.9,555.9z
					 M221.6,555.5l-0.2-1.8l1.8-0.2l0.2,1.8L221.6,555.5z M225.2,555.2l-0.2-1.8l1.8-0.2l0.2,1.8L225.2,555.2z M228.9,554.8
					l-0.2-1.8l1.8-0.2l0.2,1.8L228.9,554.8z M232.5,554.4l-0.2-1.8l1.8-0.2l0.2,1.8L232.5,554.4z M236.2,554.1l-0.2-1.8l1-0.1
					l0.7-0.2l0.4,1.8l-0.9,0.2L236.2,554.1z M239.9,553.3l-0.4-1.8l1.8-0.4l0.4,1.8L239.9,553.3z M243.5,552.4l-0.4-1.8l1.8-0.4
					l0.4,1.8L243.5,552.4z M247.1,551.6l-0.4-1.8l1.8-0.4l0.4,1.8L247.1,551.6z M250.7,550.7l-0.4-1.8l1.8-0.4l0.4,1.8L250.7,550.7z
					 M254.2,549.8l-0.4-1.8l1.8-0.4l0.4,1.8L254.2,549.8z M257.8,548.9l-0.4-1.8l1.8-0.4l0.4,1.8L257.8,548.9z M261.4,548l-0.4-1.8
					l1.8-0.4l0.4,1.8L261.4,548z M264.9,547.1l-0.4-1.8l1.8-0.4l0.5,1.8L264.9,547.1z M268.5,546.2l-0.5-1.8l1.8-0.5l0.5,1.8
					L268.5,546.2z M272.1,545.3l-0.5-1.8l1.8-0.5l0.5,1.8L272.1,545.3z M275.6,544.4l-0.5-1.8l1.8-0.5l0.5,1.8L275.6,544.4z
					 M279.2,543.5l-0.5-1.8l1.7-0.4l0.3,0.9l0.2,0.9L279.2,543.5z M282.7,542.6l-0.5-1.8l1.8-0.5l0.5,1.8L282.7,542.6z M286.3,541.7
					l-0.5-1.8l1.8-0.5l0.5,1.8L286.3,541.7z M289.9,540.7l-0.5-1.8l1.8-0.5l0.5,1.8L289.9,540.7z M293.4,539.8l-0.5-1.8l1.8-0.5
					l0.5,1.8L293.4,539.8z M297,538.8l-0.5-1.8l1.8-0.5l0.5,1.8L297,538.8z M300.5,537.9l-0.5-1.8l1.8-0.5l0.5,1.8L300.5,537.9z
					 M304.1,536.9l-0.5-1.8l1.8-0.5l0.5,1.8L304.1,536.9z M307.6,535.9l-0.5-1.8l1.8-0.5l0.5,1.8L307.6,535.9z M311.2,535l-0.5-1.8
					l1.8-0.5l0.5,1.8L311.2,535z M314.7,534l-0.5-1.8l1.8-0.5l0.5,1.8L314.7,534z M318.2,532.9l-0.5-1.8l1.8-0.5l0.5,1.8
					L318.2,532.9z M321.8,531.9l-0.5-1.8l1.8-0.5l0.5,1.8L321.8,531.9z M325.3,530.8l-0.5-1.8c0.6-0.2,1.2-0.4,1.8-0.5l0.5,1.8
					C326.5,530.5,325.9,530.6,325.3,530.8z M328.8,529.7l-0.6-1.8c0.6-0.2,1.2-0.4,1.7-0.6l0.6,1.7
					C330,529.3,329.4,529.5,328.8,529.7z M332.3,528.6l-0.6-1.7c0.6-0.2,1.2-0.4,1.7-0.6l0.6,1.7
					C333.5,528.2,332.9,528.4,332.3,528.6z M335.8,527.4l-0.6-1.7c0.6-0.2,1.2-0.4,1.7-0.6l0.7,1.7
					C337,526.9,336.4,527.1,335.8,527.4z M339.3,526l-0.7-1.7c0.6-0.2,1.2-0.5,1.6-0.7l0.8,1.7C340.5,525.5,339.9,525.8,339.3,526z
					 M342.7,524.5l-0.8-1.7c0.5-0.2,1-0.5,1.6-0.8l0.8,1.7C343.7,524,343.2,524.3,342.7,524.5z M346,522.9l-0.8-1.6
					c0.6-0.3,1.1-0.6,1.6-0.8l0.9,1.6C347.1,522.3,346.6,522.6,346,522.9z M349.3,521l-1-1.5c0.3-0.2,0.4-0.3,0.4-0.3
					c0.2-0.4,0.8-0.5,1.6-0.6l0.3,1.8c-0.3,0-0.4,0.1-0.5,0.1C349.9,520.6,349.7,520.8,349.3,521z M352.3,520.2l-0.2-1.8l0.1,0
					c0.5,0,1.1-0.1,1.7-0.2l0.2,1.8c-0.6,0.1-1.2,0.1-1.7,0.2L352.3,520.2z M356,519.8l-0.2-1.8c0.6-0.1,1.2-0.2,1.8-0.3l0.3,1.8
					C357.2,519.6,356.6,519.7,356,519.8z M359.7,519.2l-0.4-1.8c0.6-0.1,1.2-0.3,1.7-0.4l0.5,1.8C360.9,518.9,360.3,519,359.7,519.2
					z M363.3,518.2l-0.6-1.7c0.6-0.2,1.1-0.4,1.7-0.6l0.7,1.7C364.6,517.7,364,518,363.3,518.2z M366.9,516.7L366,515
					c0.5-0.3,1-0.6,1.5-0.9l1,1.5C368,516.1,367.4,516.4,366.9,516.7z M370,515.3l-0.5-1.8l1.8-0.4l0.4,1.8L370,515.3z M373.6,514.4
					l-0.4-1.8l1.8-0.4l0.4,1.8L373.6,514.4z M377.1,513.5l-0.4-1.8l1.8-0.4l0.4,1.8L377.1,513.5z M380.7,512.7l-0.4-1.8l1.8-0.4
					l0.4,1.8L380.7,512.7z M384.3,511.8l-0.4-1.8l1.8-0.4l0.4,1.8L384.3,511.8z M387.9,511l-0.4-1.8l1.8-0.4l0.4,1.8L387.9,511z
					 M391.4,510.2l-0.4-1.8l1.8-0.4l0.4,1.8L391.4,510.2z M395,509.4l-0.4-1.8l1.8-0.4l0.4,1.8L395,509.4z M398.6,508.6l-0.4-1.8
					l1.8-0.4l0.4,1.8L398.6,508.6z M402.2,507.9l-0.4-1.8l1.8-0.4l0.4,1.8L402.2,507.9z M405.8,507.2l-0.3-1.8
					c0.6-0.1,1.2-0.2,1.8-0.3l0.3,1.8C407,506.9,406.4,507.1,405.8,507.2z M409.4,506.5l-0.3-1.8c0.6-0.1,1.2-0.2,1.8-0.3l0.3,1.8
					C410.6,506.3,410,506.4,409.4,506.5z M413,505.9l-0.3-1.8c0.6-0.1,1.2-0.2,1.8-0.3l0.3,1.8C414.2,505.7,413.6,505.8,413,505.9z
					 M416.6,505.3l-0.3-1.8c0.6-0.1,1.2-0.2,1.8-0.3l0.3,1.8C417.8,505.1,417.2,505.2,416.6,505.3z M420.3,504.7l-0.3-1.8
					c0.6-0.1,1.2-0.2,1.8-0.3l0.4,1.8C421.5,504.4,420.9,504.6,420.3,504.7z M423.9,504l-0.4-1.8c0.6-0.1,1.2-0.2,1.8-0.4l0.4,1.8
					C425.1,503.7,424.5,503.8,423.9,504z M427.5,503.2l-0.4-1.8c0.6-0.1,1.2-0.3,1.8-0.4l0.4,1.8C428.7,503,428.1,503.1,427.5,503.2
					z M431.1,502.4l-0.4-1.8l1.8-0.4l0.4,1.8L431.1,502.4z M434.7,501.6l-0.4-1.8l1.8-0.4l0.4,1.8L434.7,501.6z M438.3,500.7
					l-0.4-1.8l1.8-0.4l0.4,1.8L438.3,500.7z M441.8,499.8l-0.4-1.8l1.8-0.4l0.4,1.8L441.8,499.8z M445.4,498.9l-0.5-1.8l1.8-0.5
					l0.5,1.8L445.4,498.9z M449,498l-0.5-1.8l1.7-0.4l0.3,0.9l0.2,0.9L449,498z M452.5,497.1l-0.5-1.8l1.8-0.5l0.5,1.8L452.5,497.1z
					 M456.1,496.2l-0.5-1.8l1.8-0.5l0.5,1.8L456.1,496.2z M459.7,495.2l-0.5-1.8l1.8-0.5l0.5,1.8L459.7,495.2z M463.2,494.2
					l-0.5-1.8l1.8-0.5l0.5,1.8L463.2,494.2z M466.8,493.2l-0.5-1.8l1.8-0.5l0.5,1.8L466.8,493.2z M470.4,492.2l-0.6-1.7
					c0.3-0.1,0.9-0.4,1.6-0.7l0.8,1.7C471.4,491.8,470.8,492,470.4,492.2z M473.8,490.5l-0.9-1.6c0.5-0.3,1-0.6,1.5-1l1.1,1.5
					C474.9,489.8,474.4,490.2,473.8,490.5z M476.9,488.3l-1.2-1.4c0.5-0.4,0.9-0.8,1.3-1.2l1.3,1.3
					C477.9,487.5,477.4,487.9,476.9,488.3z M479.7,485.7l-1.4-1.2c0.4-0.4,0.8-0.9,1.1-1.4l1.5,1.1
					C480.5,484.7,480.1,485.2,479.7,485.7z M482,482.7l-1.5-1c0.3-0.5,0.6-1,0.9-1.5l1.6,0.9C482.7,481.6,482.4,482.1,482,482.7z
					 M483.9,479.3l-1.7-0.8c0.2-0.5,0.5-1.1,0.7-1.6l1.7,0.6C484.4,478.2,484.1,478.8,483.9,479.3z M485.2,475.8l-1.8-0.5
					c0.2-0.6,0.3-1.1,0.5-1.7l1.8,0.4C485.5,474.6,485.4,475.2,485.2,475.8z M486.1,472.1l-1.8-0.3c0.1-0.5,0.2-1,0.2-1.5l0-0.3
					l1.8,0.2l0,0.3C486.2,471,486.1,471.6,486.1,472.1z M486.5,468.4l-1.8-0.2c0.1-0.6,0.1-1.2,0.1-1.8l1.8,0.1
					C486.6,467.2,486.5,467.8,486.5,468.4z M451.5,468.1l-1.6-0.8l0.8-1.6l1.6,0.8L451.5,468.1z M448.3,466.4l-1.6-0.8l0.8-1.6
					l1.6,0.8L448.3,466.4z M445,464.7l-1.6-0.8l0.8-1.6l1.6,0.8L445,464.7z M486.7,464.7l-1.8-0.1c0-0.6,0.1-1.2,0.1-1.8l1.8,0.1
					C486.8,463.5,486.8,464.1,486.7,464.7z M441.7,463l-1.6-0.8l0.8-1.6l1.6,0.8L441.7,463z M438.5,461.3l-1.6-0.8l0.8-1.6l1.6,0.8
					L438.5,461.3z M486.9,461l-1.8,0c0-0.6,0-1.2,0-1.8l1.8,0C486.9,459.8,486.9,460.4,486.9,461z M435.2,459.5
					c-0.5-0.3-1-0.7-1.6-1.1l1.1-1.5c0.5,0.4,1,0.7,1.4,1L435.2,459.5z M485.1,457.3L485.1,457.3c0-0.7,0-1.2,0-1.8l1.8,0
					c0,0.6,0,1.2,0,1.8L485.1,457.3z M432.2,457.2c-0.5-0.4-0.9-0.8-1.4-1.3l1.3-1.3c0.4,0.4,0.9,0.8,1.3,1.2L432.2,457.2z
					 M429.4,454.6c-0.4-0.4-0.9-0.9-1.3-1.4l1.4-1.2c0.4,0.4,0.8,0.9,1.2,1.3L429.4,454.6z M485.1,453.6c0-0.6,0-1.2,0-1.8l1.8-0.1
					c0,0.6,0,1.2,0,1.8L485.1,453.6z M426.9,451.9c-0.4-0.5-0.8-0.9-1.2-1.4l1.4-1.2c0.4,0.5,0.8,0.9,1.2,1.4L426.9,451.9z
					 M484.9,450c0-0.6,0-1.2-0.1-1.8l1.8-0.1c0,0.6,0.1,1.2,0.1,1.8L484.9,450z M424.5,449c-0.4-0.5-0.8-1-1.1-1.5l1.5-1.1
					c0.4,0.5,0.7,1,1.1,1.4L424.5,449z M484.8,446.3c0-0.6-0.1-1.2-0.1-1.8l1.8-0.1c0,0.6,0.1,1.2,0.1,1.8L484.8,446.3z
					 M422.3,446.1c-0.4-0.5-0.7-1-1.1-1.5l1.5-1.1c0.3,0.5,0.7,1,1.1,1.5L422.3,446.1z M420.1,443.1c-0.4-0.6-0.7-1.1-1-1.5l1.5-1
					c0.3,0.5,0.6,1,1,1.5L420.1,443.1z M484.6,442.7c0-0.6-0.1-1.2-0.1-1.8l1.8-0.1c0,0.6,0.1,1.2,0.1,1.8L484.6,442.7z M418.1,440
					c-0.4-0.6-0.6-1-0.6-1l0,0c-0.1-0.2-0.2-0.4-0.4-0.7l1-0.4l-0.1-0.2l0.6-0.1l0.1,0.1l0.1,0c0.1,0.3,0.2,0.5,0.2,0.5
					c0.1,0.1,0.3,0.4,0.6,0.9L418.1,440z M484.3,439c0-0.6-0.1-1.2-0.1-1.8l1.8-0.2c0,0.6,0.1,1.2,0.1,1.8L484.3,439z M416.4,436.5
					c-0.2-0.5-0.4-1.1-0.6-1.8l1.7-0.6c0.2,0.6,0.4,1.2,0.6,1.7L416.4,436.5z M484,435.4c-0.1-0.6-0.1-1.3-0.2-1.8l1.8-0.2
					c0.1,0.6,0.1,1.2,0.2,1.8L484,435.4z M415.2,433c-0.2-0.6-0.3-1.2-0.5-1.8l1.8-0.5c0.2,0.6,0.3,1.2,0.5,1.7L415.2,433z
					 M483.7,431.7c-0.1-0.7-0.1-1.4-0.2-1.8l1.8-0.2c0.1,0.5,0.1,1.1,0.2,1.8L483.7,431.7z M414.2,429.3c-0.1-0.6-0.3-1.2-0.4-1.8
					l1.8-0.3c0.1,0.6,0.2,1.2,0.4,1.8L414.2,429.3z M483,428.7c-0.3-0.3-0.7-0.8-1.2-1.4l1.4-1.2c0.5,0.6,0.9,1.1,1.2,1.4L483,428.7
					z M480.6,426c-0.4-0.4-0.8-0.9-1.2-1.3l1.3-1.3c0.5,0.5,0.9,0.9,1.3,1.4L480.6,426z M413.5,425.7c-0.1-0.6-0.2-1.2-0.2-1.9
					l1.8-0.2c0.1,0.6,0.1,1.2,0.2,1.8L413.5,425.7z M478.1,423.4c-0.4-0.4-0.8-0.8-1.3-1.3l1.3-1.3c0.5,0.4,0.9,0.9,1.3,1.3
					L478.1,423.4z M413.1,421.9c0-0.6-0.1-1.2-0.1-1.9l1.8,0c0,0.6,0,1.2,0.1,1.8L413.1,421.9z M475.5,420.8
					c-0.4-0.4-0.9-0.8-1.3-1.2l1.2-1.4c0.5,0.4,0.9,0.8,1.4,1.3L475.5,420.8z M472.8,418.4c-0.4-0.4-0.9-0.8-1.4-1.2l1.2-1.4
					c0.5,0.4,0.9,0.8,1.4,1.2L472.8,418.4z M414.9,418.3l-1.8-0.1c0-0.6,0.1-1.3,0.1-1.9l1.8,0.2C415,417.1,415,417.7,414.9,418.3z
					 M470,416c-0.5-0.4-0.9-0.8-1.4-1.2l1.2-1.4c0.5,0.4,1,0.8,1.4,1.2L470,416z M415.3,414.7l-1.8-0.3c0.1-0.6,0.2-1.3,0.4-1.9
					l1.8,0.4C415.5,413.5,415.4,414.1,415.3,414.7z M467.2,413.7c-0.5-0.4-1-0.7-1.4-1.1l1.1-1.5c0.5,0.4,1,0.7,1.5,1.1L467.2,413.7
					z M464.3,411.6c-0.5-0.4-1-0.7-1.5-1.1l1.1-1.5c0.5,0.4,1,0.7,1.5,1.1L464.3,411.6z M416.1,411.3l-1.8-0.6
					c0.2-0.6,0.4-1.2,0.6-1.8l1.7,0.7C416.5,410.2,416.3,410.7,416.1,411.3z M461.3,409.5c-0.5-0.3-1-0.7-1.5-1l1-1.5
					c0.5,0.3,1,0.7,1.5,1L461.3,409.5z M417.4,408l-1.6-0.8c0.3-0.6,0.6-1.1,0.9-1.7l1.6,0.9C418,406.9,417.7,407.4,417.4,408z
					 M458.2,407.5c-0.5-0.3-1-0.6-1.6-0.9l0.9-1.6c0.5,0.3,1.1,0.6,1.6,1L458.2,407.5z M455.1,405.6c-0.5-0.3-1.1-0.6-1.6-0.9
					l0.9-1.6c0.5,0.3,1.1,0.6,1.6,0.9L455.1,405.6z M419.2,404.9l-1.5-1c0.3-0.5,0.7-1.1,1.1-1.6l1.5,1.1
					C419.9,403.9,419.5,404.4,419.2,404.9z M451.9,403.9c-0.5-0.3-1.1-0.6-1.6-0.8l0.8-1.6c0.6,0.3,1.1,0.6,1.7,0.8L451.9,403.9z
					 M448.7,402.3c-0.5-0.3-1.1-0.5-1.7-0.8l0.8-1.7c0.6,0.3,1.1,0.5,1.7,0.8L448.7,402.3z M421.3,402.1l-1.4-1.2
					c0.4-0.5,0.9-1,1.3-1.4l1.3,1.3C422.1,401.2,421.7,401.6,421.3,402.1z M445.3,400.8c-0.6-0.2-1.1-0.5-1.7-0.7l0.7-1.7
					c0.6,0.2,1.2,0.5,1.7,0.7L445.3,400.8z M423.8,399.7l-1.1-1.4c0.5-0.4,1-0.8,1.6-1.1l1,1.6C424.8,399,424.3,399.3,423.8,399.7z
					 M442,399.5c-0.6-0.2-1.1-0.4-1.7-0.6l0.6-1.7c0.6,0.2,1.2,0.4,1.7,0.6L442,399.5z M438.5,398.3c-0.6-0.2-1.2-0.4-1.7-0.5
					l0.5-1.8c0.6,0.2,1.2,0.4,1.8,0.5L438.5,398.3z M426.8,397.8l-0.8-1.7c0.6-0.3,1.2-0.5,1.8-0.7l0.6,1.8
					C427.8,397.4,427.3,397.6,426.8,397.8z M435.1,397.3c-0.6-0.2-1.2-0.3-1.8-0.4l0.4-1.8c0.6,0.1,1.2,0.3,1.8,0.5L435.1,397.3z
					 M430,396.8l-0.3-1.8c0.7-0.1,1.3-0.2,2-0.2l0,1.8C431.2,396.6,430.6,396.7,430,396.8z"/>
			</g>
			<g>
				
					<rect x="452.9" y="467" transform="matrix(0.8884 0.4591 -0.4591 0.8884 265.4301 -155.8911)" fill="#191919" width="0.9" height="1.8"/>
			</g>
		</g>
	</g>
	<g>
		<g>
			<path fill="#191919" d="M436.2,403.9c-0.3-0.1-0.6-0.2-0.7-0.3l-0.8,0l0.1-2.1l1.2,0.4c0,0,0.3,0.1,0.9,0.3l-0.3,0.7l0,0.8
				l-0.3,0L436.2,403.9z"/>
		</g>
		<g>
			<path fill="#191919" d="M443.8,438.6c-0.6,0-1.2-0.1-2-0.3l0.5-1.8c0.6,0.2,1,0.2,1.5,0.2l0.2,1.8L443.8,438.6z M445.9,437.9
				l-0.7-1.7c0.3-0.1,0.9-0.4,1.6-0.8l0.9,1.6C446.9,437.5,446.2,437.7,445.9,437.9z M440,437.6c-0.5-0.2-1.1-0.5-1.7-0.9l0.9-1.6
				c0.6,0.3,1.1,0.6,1.6,0.8L440,437.6z M449.4,436.1l-1-1.6c0.5-0.3,1-0.7,1.5-1l1.1,1.5C450.5,435.4,449.9,435.7,449.4,436.1z
				 M436.6,435.8c-0.5-0.3-1-0.7-1.6-1.1l1.1-1.5c0.5,0.4,1,0.7,1.5,1L436.6,435.8z M452.5,433.8l-1.2-1.4c0.5-0.4,0.9-0.8,1.3-1.2
				l1.3,1.3C453.5,433,453,433.4,452.5,433.8z M433.5,433.6c-0.5-0.4-1-0.8-1.5-1.1l1.1-1.5c0.4,0.3,0.9,0.7,1.5,1.1L433.5,433.6z
				 M430.5,431.3c-0.6-0.5-1-0.9-1.4-1.3l1.3-1.3c0.4,0.4,0.8,0.8,1.3,1.2L430.5,431.3z M455.2,431l-1.5-1.1c0.4-0.5,0.7-1,0.9-1.4
				l1.6,0.9C456,429.9,455.6,430.5,455.2,431z M427.7,428.4c-0.2-0.3-0.3-0.6-0.3-0.9c0-0.7,0.4-1.1,0.9-1.2
				c0.1-0.1,0.2-0.2,0.3-0.3l1.4,1.2c-0.4,0.4-0.6,0.6-0.7,0.6l-0.2,0.2h-0.3c0.3,0,0.5-0.3,0.5-0.5L427.7,428.4z M457.1,427.5
				l-1.7-0.6c0.2-0.5,0.3-1.1,0.4-1.6l1.8,0.2C457.4,426.2,457.3,426.8,457.1,427.5z M431.2,425.6l-1.5-1c0.3-0.5,0.6-1,0.9-1.5
				l1.6,0.8C431.9,424.5,431.5,425.1,431.2,425.6z M455.7,423.6c-0.1-0.5-0.2-1.1-0.3-1.7l1.8-0.5c0.2,0.7,0.3,1.3,0.4,2
				L455.7,423.6z M433,422.2l-1.7-0.7c0.2-0.5,0.4-1.1,0.7-1.7l1.7,0.6C433.4,421,433.2,421.6,433,422.2z M454.8,420.4
				c-0.2-0.5-0.5-0.9-0.7-1.4l-0.1-0.2l1.6-1l0.1,0.2c0.3,0.5,0.6,1,0.8,1.5L454.8,420.4z M434.3,418.6l-1.8-0.5
				c0.2-0.6,0.3-1.1,0.5-1.8l1.8,0.5C434.6,417.4,434.4,418,434.3,418.6z M453,417.3c-0.3-0.5-0.7-1-1.1-1.5l1.5-1.1
				c0.4,0.5,0.8,1,1.1,1.5L453,417.3z M435.2,414.9l-1.8-0.4c0.1-0.6,0.2-1.2,0.3-1.8l1.8,0.3C435.4,413.7,435.3,414.3,435.2,414.9z
				 M450.8,414.4c-0.4-0.5-0.8-0.9-1.2-1.4l1.3-1.3c0.4,0.5,0.9,0.9,1.3,1.4L450.8,414.4z M448.3,411.8c-0.4-0.4-0.9-0.8-1.3-1.2
				l1.2-1.4c0.5,0.4,0.9,0.8,1.4,1.3L448.3,411.8z M435.9,411.2l-1.8-0.3c0.1-0.6,0.2-1.2,0.2-1.8l1.8,0.2
				C436,410,435.9,410.6,435.9,411.2z M445.6,409.4c-0.5-0.4-1-0.8-1.4-1.1l1.1-1.5c0.5,0.4,1,0.7,1.5,1.2L445.6,409.4z
				 M436.3,407.5l-1.8-0.2c0.1-0.6,0.1-1.2,0.2-1.8l1.8,0.1C436.4,406.2,436.4,406.9,436.3,407.5z M442.6,407.3
				c-0.5-0.3-1-0.7-1.5-1l0.9-1.6c0.5,0.3,1.1,0.6,1.6,1L442.6,407.3z M439.5,405.4c-0.6-0.3-1.1-0.6-1.6-0.8l0.8-1.7
				c0.5,0.2,1.1,0.5,1.7,0.9L439.5,405.4z"/>
		</g>
	</g>
	<g>
		<path fill="#191919" d="M509.3,85.2c-0.8,0-1.6-0.3-2.2-0.7c-0.9-0.7-1.3-1.8-1.3-3.1c0-1.2,0.5-2.5,1.4-3.6
			c1.2-1.4,2.8-2.3,4.3-2.3c0.8,0,1.6,0.3,2.2,0.7c0.9,0.7,1.3,1.8,1.3,3.1c0,1.2-0.5,2.5-1.4,3.6C512.4,84.3,510.8,85.2,509.3,85.2
			z M511.5,76.4c-1.3,0-2.6,0.7-3.6,2c-0.8,0.9-1.2,2-1.2,3.1c0,1,0.3,1.8,0.9,2.3c0.4,0.4,1,0.5,1.6,0.5c1.3,0,2.6-0.7,3.6-2
			c0.8-0.9,1.2-2,1.2-3.1c0-1-0.3-1.8-0.9-2.3C512.7,76.5,512.2,76.4,511.5,76.4z"/>
	</g>
	<g>
		<path fill="#191919" d="M513.1,99.4c-0.5,0-1,0-1.2-0.1c-0.1,0-0.2,0-0.2-0.1l-23.6-6.5c-1.3-0.4-2.2-1.7-2.1-3
			c0.1-1.6,0.8-3.5,3.7-4.2c1.1-0.3,2.4-0.2,3.6,0.1l22.5,5.6c0.9,0.2,1.7,0.8,2.2,1.5c0.6,0.9,1.4,2.8-0.5,5
			C516.3,99.1,514.4,99.4,513.1,99.4z M491.3,86.3c-0.5,0-1,0.1-1.4,0.2c-1.9,0.4-2.9,1.6-3,3.4c-0.1,0.9,0.5,1.8,1.5,2.1l23.6,6.5
			c0,0,0.1,0,0.1,0c0.1,0,0.5,0.1,1,0.1c1.2,0,2.7-0.2,3.7-1.4c1.5-1.7,1.1-3.1,0.5-3.9c-0.4-0.5-1-0.9-1.7-1.1L493,86.5
			C492.4,86.3,491.8,86.3,491.3,86.3z"/>
	</g>
</g>
<path opacity="0.2" d="M590.5,31L590.5,31l2,4.4l0,0c23.2-10.2,50.4,0.3,60.6,23.5l4.4-2C646.2,31.3,616.1,19.6,590.5,31z"/>
<path opacity="0.4" d="M594.2,39.3L594.2,39.3l2,4.4l0,0c18.6-8.2,40.4,0.2,48.7,18.9l4.4-2C639.9,39.5,615.2,30,594.2,39.3z"/>
<path opacity="0.7" d="M597.8,47.5L597.8,47.5l2,4.4l0,0c14-6.2,30.5,0.2,36.7,14.2l4.4-2C633.7,47.8,614.3,40.3,597.8,47.5z"/>
<path d="M601.5,55.8L601.5,55.8l2,4.4l0,0c9.5-4.2,20.6,0.1,24.8,9.6l4.4-2C627.4,56,613.4,50.6,601.5,55.8z"/>
<polygon points="618.6,76.1 612.3,73.7 616.1,63.9 604.7,75.6 611,78 607.2,87.8 "/>
</svg>
